<svg width="338" height="338" viewBox="0 0 338 338" fill="none" xmlns="http://www.w3.org/2000/svg">
<g opacity="0.2">
<circle cx="169.089" cy="169.089" r="131.261" stroke="#3282AD" stroke-width="2" stroke-dasharray="5 5"/>
<circle cx="169" cy="169" r="168" stroke="#3282AD" stroke-width="2" stroke-dasharray="5 5"/>
<circle cx="168.866" cy="168.866" r="93.3913" stroke="#3282AD" stroke-width="2" stroke-dasharray="5 5"/>
<path d="M231.132 162.072C231.32 163.677 231.447 165.3 231.511 166.94L230.511 166.979C230.542 167.777 230.558 168.579 230.558 169.385C230.558 170.19 230.542 170.992 230.511 171.79L231.511 171.829C231.447 173.469 231.32 175.092 231.132 176.697L230.139 176.58C229.952 178.182 229.702 179.764 229.393 181.325L230.374 181.519C230.057 183.125 229.677 184.709 229.238 186.268L228.275 185.997C227.84 187.545 227.345 189.068 226.793 190.564L227.731 190.91C227.165 192.443 226.541 193.948 225.86 195.421L224.952 195.002C224.279 196.46 223.55 197.887 222.768 199.28L223.64 199.769C222.842 201.191 221.99 202.579 221.086 203.929L220.255 203.373C219.362 204.706 218.419 206.002 217.428 207.258L218.212 207.877C217.203 209.156 216.145 210.394 215.04 211.588L214.306 210.909C213.218 212.085 212.085 213.219 210.909 214.307L211.588 215.041C210.393 216.145 209.155 217.204 207.877 218.213L207.257 217.428C206.001 218.42 204.705 219.363 203.372 220.255L203.929 221.086C202.578 221.99 201.191 222.843 199.768 223.641L199.279 222.769C197.886 223.551 196.459 224.28 195.001 224.953L195.42 225.861C193.947 226.541 192.442 227.166 190.909 227.731L190.563 226.793C189.067 227.345 187.544 227.84 185.996 228.276L186.267 229.239C184.708 229.678 183.124 230.057 181.518 230.375L181.324 229.394C179.763 229.703 178.181 229.952 176.58 230.14L176.696 231.133C175.091 231.321 173.468 231.448 171.828 231.511L171.79 230.512C170.992 230.543 170.19 230.559 169.384 230.559C168.578 230.559 167.776 230.543 166.978 230.512L166.939 231.511C165.3 231.448 163.676 231.321 162.072 231.133L162.188 230.14C160.587 229.952 159.005 229.703 157.444 229.394L157.25 230.375C155.644 230.057 154.06 229.678 152.5 229.239L152.771 228.276C151.223 227.84 149.7 227.345 148.205 226.793L147.858 227.731C146.325 227.166 144.821 226.541 143.347 225.861L143.767 224.953C142.309 224.28 140.882 223.551 139.489 222.769L138.999 223.641C137.577 222.843 136.189 221.99 134.839 221.086L135.395 220.255C134.063 219.363 132.767 218.42 131.511 217.428L130.891 218.213C129.613 217.204 128.375 216.145 127.18 215.041L127.859 214.307C126.683 213.219 125.55 212.085 124.462 210.909L123.728 211.588C122.623 210.394 121.565 209.156 120.555 207.877L121.34 207.258C120.349 206.002 119.405 204.706 118.513 203.373L117.682 203.929C116.778 202.579 115.926 201.191 115.128 199.769L116 199.28C115.218 197.887 114.489 196.46 113.816 195.002L112.908 195.421C112.227 193.948 111.603 192.443 111.037 190.91L111.975 190.564C111.423 189.068 110.928 187.545 110.492 185.997L109.53 186.268C109.091 184.709 108.711 183.125 108.393 181.519L109.374 181.325C109.066 179.764 108.816 178.182 108.629 176.58L107.635 176.697C107.447 175.092 107.321 173.469 107.257 171.829L108.256 171.791C108.226 170.992 108.21 170.19 108.21 169.385C108.21 168.579 108.226 167.777 108.256 166.979L107.257 166.94C107.321 165.3 107.447 163.677 107.635 162.072L108.629 162.189C108.816 160.588 109.066 159.005 109.374 157.445L108.393 157.251C108.711 155.644 109.091 154.06 109.53 152.501L110.492 152.772C110.928 151.224 111.423 149.701 111.975 148.205L111.037 147.859C111.603 146.326 112.227 144.822 112.908 143.348L113.816 143.767C114.489 142.31 115.218 140.883 116 139.489L115.128 139C115.926 137.578 116.778 136.19 117.682 134.84L118.513 135.396C119.405 134.063 120.349 132.768 121.34 131.512L120.555 130.892C121.565 129.613 122.623 128.375 123.728 127.181L124.462 127.86C125.55 126.684 126.683 125.55 127.859 124.463L127.18 123.729C128.375 122.624 129.613 121.565 130.891 120.556L131.511 121.341C132.767 120.349 134.063 119.406 135.395 118.514L134.839 117.683C136.189 116.779 137.577 115.926 138.999 115.128L139.489 116C140.882 115.218 142.309 114.489 143.767 113.816L143.347 112.908C144.821 112.228 146.325 111.604 147.858 111.038L148.205 111.976C149.7 111.424 151.223 110.929 152.771 110.493L152.5 109.53C154.06 109.092 155.644 108.712 157.25 108.394L157.444 109.375C159.005 109.066 160.587 108.817 162.188 108.629L162.072 107.636C163.676 107.448 165.3 107.321 166.939 107.258L166.978 108.257C167.776 108.226 168.578 108.211 169.384 108.211C170.19 108.211 170.992 108.226 171.79 108.257L171.828 107.258C173.468 107.321 175.091 107.448 176.696 107.636L176.58 108.629C178.181 108.817 179.763 109.066 181.324 109.375L181.518 108.394C183.124 108.712 184.708 109.092 186.267 109.53L185.996 110.493C187.544 110.929 189.067 111.424 190.563 111.976L190.909 111.038C192.442 111.604 193.947 112.228 195.42 112.908L195.001 113.816C196.459 114.489 197.886 115.218 199.279 116L199.768 115.128C201.191 115.926 202.578 116.779 203.929 117.683L203.372 118.514C204.705 119.406 206.001 120.349 207.257 121.341L207.877 120.556C209.155 121.565 210.393 122.624 211.588 123.729L210.909 124.463C212.085 125.55 213.218 126.684 214.306 127.86L215.04 127.181C216.145 128.375 217.203 129.613 218.212 130.892L217.427 131.512C218.419 132.768 219.362 134.063 220.255 135.396L221.086 134.84C221.99 136.19 222.842 137.578 223.64 139L222.768 139.489C223.55 140.883 224.279 142.31 224.952 143.767L225.86 143.348C226.541 144.822 227.165 146.326 227.731 147.859L226.793 148.205C227.345 149.701 227.84 151.224 228.275 152.772L229.238 152.501C229.677 154.06 230.057 155.644 230.374 157.251L229.393 157.445C229.702 159.005 229.952 160.588 230.139 162.189L231.132 162.072Z" stroke="#3282AD" stroke-width="2" stroke-dasharray="5 5"/>
</g>
</svg>
