<svg width="893" height="446" viewBox="0 0 893 446" fill="none" xmlns="http://www.w3.org/2000/svg">
<path d="M594.082 30.6553C594.47 29.8563 594.279 28.824 595.547 28.3726C595.939 28.2331 595.968 27.1662 596.175 26.4841C597.438 26.381 598.402 26.8802 599.194 27.7182C599.749 28.306 600.455 28.6807 601.232 28.3035C603.379 27.2605 605.624 27.2108 608.441 27.61C607.891 26.9147 607.665 26.5457 607.355 26.2527C606.323 25.2764 606.526 24.2794 607.895 23.8531C608.254 23.7412 608.655 23.7393 609.038 23.7155C611.648 23.5533 614.258 23.403 616.868 23.2333C617.084 23.2195 617.295 23.0943 617.703 22.9541L617.19 21.4114C617.318 21.2065 617.343 21.1071 617.398 21.087C620.46 19.9831 623.307 18.2983 626.731 18.1845C628.178 18.1367 629.628 17.8173 631.061 17.5445C633.099 17.156 635.102 16.7587 637.222 16.8794C638.561 16.9554 639.943 16.5091 641.466 16.2721C641.435 14.7689 642.492 14.4175 643.821 14.1541C646.062 13.709 648.123 13.9592 650.368 14.3949C654.68 15.231 658.937 16.5399 663.455 16.3846C666.196 16.2903 668.817 16.6964 671.187 18.0342C671.383 18.1449 671.635 18.197 671.785 18.3441C672.293 18.8389 673.083 19.3129 673.179 19.8888C673.323 20.757 672.336 21.1185 671.593 21.5353C669.88 22.4952 668.209 23.52 666.604 24.9112C667.061 24.9715 667.546 25.1589 667.97 25.0702C669.759 24.6949 671.597 24.6082 673.299 23.7199C674.148 23.2767 675.394 23.3257 676.429 23.4143C680.772 23.7877 685.093 24.3636 689.443 24.6584C692.042 24.8351 694.668 24.6585 697.213 25.3538C697.845 25.526 698.583 25.3795 699.255 25.3795C699.633 23.9097 700.985 23.0227 702.604 23.728C705.314 24.9087 708.054 24.6484 710.88 24.6188C713.977 24.5862 716.786 25.4261 718.55 28.074C718.701 28.3016 718.971 28.4927 719.232 28.6184C721.252 29.5891 723.283 30.5396 725.753 31.7052L724.658 28.8944C725.595 29.0082 726.253 28.9893 726.831 29.1761C729.064 29.8953 731.251 30.1247 733.588 29.3175C734.526 28.9937 735.67 29.1729 736.718 29.1824C737.843 29.193 738.966 29.2735 740.355 29.3351L739.455 27.8917C740.58 26.3697 742.046 26.1968 743.767 26.3791C746.959 26.7173 750.167 26.9682 753.377 27.1561C758.662 27.4655 763.809 28.433 768.921 29.5954C769.142 29.6457 769.366 29.7205 769.563 29.8242C772.733 31.4965 776.214 31.3154 779.679 31.0715C783.227 30.8213 786.664 31.0778 790.138 31.819C791.96 32.2075 793.594 32.5652 795.125 33.6201C795.976 34.2066 797.275 34.2601 798.39 34.4845C798.984 34.6039 799.613 34.6146 800.228 34.609C806.384 34.5486 812.534 34.5618 818.789 35.9141L818.712 34.0633C819.213 33.9596 819.709 33.7848 820.208 33.7666C823.295 33.6515 826.334 33.9244 829.378 34.3984C832.391 34.868 835.475 34.9736 838.504 35.3791C840.852 35.6934 843.154 36.2643 845.492 36.6446C847.225 36.9269 848.993 37.0325 850.727 37.311C854.816 37.9679 858.793 39.0109 862.533 40.6567C865.709 42.0542 869.163 42.2592 872.543 42.7929C875.845 43.3147 878.836 44.4338 881.651 46.3562L880.748 47.5268L882.051 50.6343C880.223 51.1674 878.626 51.1862 877.101 50.7474C873.893 49.8239 870.715 48.8099 867.548 47.7739C865.288 47.0339 863.621 47.4168 862.063 49.1468C861.685 49.5674 861.255 49.9478 860.743 50.4501C863.32 51.6081 865.558 53.2501 868.477 53.6129C869.72 53.7675 870.77 54.3396 871.304 55.585C869.792 57.4553 867.633 57.0398 865.799 56.7191C864.44 56.4815 863.664 56.7468 862.729 57.5245C861.411 58.6202 860.123 59.5362 859.546 61.3272C858.86 63.4515 857.058 63.9513 854.692 63.3088C853.814 63.0705 852.927 62.7499 852.029 62.7166C851.28 62.6889 850.438 62.6141 849.976 63.6722C849.377 65.0439 848.826 65.0514 847.592 64.089C847.189 63.7746 846.793 63.4528 846.572 63.2761L842.743 64.4517C843.077 65.6544 843.285 67.0695 843.899 68.3036C844.173 68.853 845.241 69.2774 845.994 69.3352C847.5 69.4509 848.626 69.8626 849.344 71.1696C849.606 71.6449 850.278 71.9045 850.641 72.3496C851.14 72.9601 851.987 73.7314 851.866 74.2966C851.545 75.8142 852.597 76.336 853.524 77.0382C853.76 77.218 854.007 77.3878 854.238 77.5732C856.161 79.1128 855.885 80.4531 853.482 81.2912C853.352 81.3364 853.254 81.4666 852.96 81.7036L855.428 84.6168L852.777 85.722C853.04 86.3456 853.285 86.9862 853.576 87.608C854.11 88.7484 854.408 89.9108 853.969 91.153C853.568 92.2902 852.944 92.5065 851.9 91.8005C851.226 91.3448 850.647 90.7702 850.014 90.2609C849.321 89.7046 848.65 89.118 847.908 88.622C846.043 87.3741 844.346 86.003 842.932 84.2785C841.878 82.9942 840.606 81.7878 839.191 80.8599C836.943 79.385 835.255 77.4833 833.841 75.3716C833.019 74.1432 832.495 72.7168 832.018 71.3224C831.903 70.9867 832.408 70.3209 832.804 69.9921C833.655 69.2855 834.621 68.7002 835.669 67.9754C833.986 66.2503 835.207 64.4831 835.283 62.7757C835.297 62.462 835.839 62.137 836.175 61.8572C837.215 60.9915 837.266 60.669 836.362 59.8115C835.886 59.3595 835.353 58.9591 834.762 58.4655C833.801 58.9251 832.879 59.3463 832.418 60.5263C831.977 61.6604 831.185 61.8471 829.988 61.3775C828.617 60.8394 826.969 60.6426 826.419 59.02C824.169 59.0534 822.017 58.1066 819.907 59.0685C819.572 60.1567 819.171 61.1625 818.969 62.1992C818.772 63.2095 819.184 63.9985 820.338 64.3323C821.229 64.59 822.166 64.8616 821.728 66.2742C819.739 66.5797 817.668 66.9582 815.58 67.1958C814.447 67.3247 813.484 66.8702 812.406 66.415C810.391 65.5644 808.306 64.8037 805.696 65.6543C803.433 66.3918 800.75 66.2321 798.29 66.0705C796.102 65.9266 792.75 65.8825 790.614 66.5697L787.89 71.9781C787.759 72.239 787.585 72.4917 787.515 72.7658C787.231 73.8729 787.096 75.0246 786.685 76.0883C786.275 77.1533 785.599 78.134 784.969 79.28C786.154 79.4158 787.19 79.5447 788.229 79.6503C789.227 79.7522 789.967 80.1507 790.304 81.0761C790.703 82.1681 791.494 82.6107 792.768 82.5045C793.338 82.4567 793.933 82.7433 794.656 82.9099L794.958 81.5168C798.663 81.3779 803.197 82.9175 806.039 85.4762L805.312 81.7142C806.328 81.4206 806.798 81.9732 807.322 82.4837C808.776 83.9014 809.725 85.8225 811.917 86.5147C811.983 86.5354 812.038 86.6021 812.085 86.6574C813.786 88.6459 815.576 90.5753 817.154 92.6448C818.231 94.0568 819.24 95.394 821.088 96.0465C822.11 96.4074 823.132 96.9933 823.067 98.4612L821.061 98.5876C821.096 100.589 822.254 101.962 823.572 103.216C824.844 104.427 826.22 105.541 827.708 106.836C827.073 107.192 826.501 107.368 826.157 107.732C825.061 108.889 824.111 108.984 823.201 107.752C822.078 106.231 821.109 104.61 820.073 103.032C818.775 101.056 817.514 99.0572 816.168 97.1109C815.176 95.6769 814.166 94.2372 812.99 92.9371C811.781 91.6012 810.362 90.4313 808.981 89.1381C808.053 90.1578 808.754 90.8972 809.171 91.5151C810.185 93.0176 811.226 94.5302 812.475 95.8586C814.195 97.688 814.055 99.7469 813.673 101.909C813.386 103.53 813.121 105.153 812.821 106.77C812.665 107.614 812.51 108.463 812.258 109.286C811.606 111.424 810.822 113.531 810.236 115.683C809.556 118.181 808.57 119.357 806.288 119.65C805.432 119.76 804.489 119.525 803.645 119.281C802.944 119.078 802.328 118.629 801.641 118.272C799.636 119.597 798.712 121.304 799.303 123.324C799.812 125.067 799.195 126.233 797.925 127.346C795.373 129.585 795.532 130.201 798.477 132.147C802.417 134.748 805.401 138.114 806.954 142.462C807.64 144.385 807.401 144.752 805.293 145.445C804.132 145.827 802.996 146.279 801.83 146.647C801.121 146.87 800.376 146.996 799.497 147.2L796.017 138.819C796.645 136.866 795.665 135.72 792.667 135.588C790.08 135.475 789.299 134.761 789.267 132.483C789.242 130.628 787.22 129.157 784.825 129.334C783.341 129.443 781.972 129.835 780.898 130.961C780.256 131.636 779.612 132.469 778.266 132.293C777.73 131.017 776.765 129.906 777.371 128.196C777.809 126.961 776.863 126.45 774.387 126.336C773.799 127.844 771.902 128.614 771.625 130.498C771.551 131.004 770.372 131.449 769.635 131.797C769.187 132.008 768.614 131.98 768.001 132.075C768.392 133.297 769.217 133.702 770.414 133.775C772.058 133.876 773.616 134.048 773.885 136.115C773.96 136.686 774.975 137.135 776.008 138.028C776.297 137.46 776.41 137.09 776.645 136.805C777.689 135.54 778.097 135.375 779.531 135.961C780.811 136.483 782.073 136.897 783.51 136.795C784.376 136.732 785.173 137.122 785.063 137.951C785.004 138.399 784.202 139.071 783.685 139.122C782.046 139.287 780.977 139.973 780.254 141.346C779.999 141.83 779.436 142.196 778.967 142.565C778.125 143.229 777.692 144.005 777.979 145.033C778.09 145.125 778.194 145.291 778.311 145.298C782.34 145.526 783.36 148.806 785.156 151.233C785.93 152.279 786.507 153.386 787.675 154.176C788.327 154.619 788.87 155.185 789.271 155.838C789.672 156.491 789.921 157.217 790.002 157.97C790.088 158.743 789.402 159.602 789.005 160.568C789.172 160.597 789.494 160.639 789.807 160.712C791.155 161.024 791.729 161.714 791.705 162.99C791.641 166.318 790.346 169.382 789.171 172.468C788.965 173.01 788.506 173.503 788.429 174.047C787.841 178.18 784.969 180.876 781.876 183.571C780.401 184.856 778.742 185.571 777.021 186.326C776.065 186.745 775.128 187.043 774.377 187.939C773.51 188.973 772.303 188.484 771.262 187.666C770.301 188.971 769.178 189.859 767.276 189.784C766.026 189.735 764.716 190.217 763.478 190.595C763.083 190.716 762.797 191.248 762.535 191.635C762.435 191.784 762.545 192.053 762.551 192.267C762.572 193.091 762.957 194.109 761.589 194.329C760.386 194.523 760.314 193.506 760.031 192.821C758.753 189.734 755.724 189.359 753.067 191.651C751.613 192.905 750.428 194.167 749.644 195.836C748.724 197.799 749.032 199.298 750.569 200.919C753.487 203.997 756.32 207.146 759.179 210.273C759.475 210.596 759.82 210.934 759.955 211.324C761.18 214.882 763.031 218.354 762.295 222.256C762.087 223.362 761.268 224.583 760.34 225.33C758.854 226.529 757.044 227.377 754.982 228.605C754.167 230.58 751.086 233.513 748.797 233.986C748.568 232.534 748.326 231.089 748.116 229.641C747.907 228.198 747.53 227.977 745.899 228.367C745.203 227.819 744.512 227.298 743.854 226.745C743.585 226.518 743.245 226.252 743.174 225.953C742.624 223.629 740.631 222.288 739.085 220.656C738.733 220.285 738.041 220.135 737.471 220.02C736.811 219.887 736.114 219.904 735.323 219.849C735.162 219.23 735.106 218.646 734.846 218.161C734.685 217.862 734.18 217.511 733.884 217.553C733.564 217.599 733.136 218.043 733.058 218.371C732.911 218.993 732.949 219.658 732.964 220.303C732.999 221.829 732.775 223.286 732.064 224.71C731.193 226.457 731.08 228.317 731.405 230.355C733.161 230.48 733.738 231.602 734.09 233.108C734.426 234.549 735.106 235.921 735.709 237.294C735.899 237.726 736.294 238.368 736.647 238.392C738.04 238.488 738.456 239.562 739.257 240.28C740.464 241.361 741.93 242.136 743.006 243.415C744.425 245.103 745.456 246.792 745.238 249.051C745.068 250.801 745.591 252.456 746.369 254.036C746.719 254.747 747.009 255.485 747.319 256.214C747.622 256.928 747.388 257.571 746.667 257.838C746.09 258.051 745.253 258.197 744.769 257.961C743.302 257.247 741.95 256.33 740.551 255.496C739.032 254.589 737.678 253.572 737.594 251.686C737.591 251.615 737.593 251.524 737.548 251.479C735.187 249.076 735.993 245.58 734.313 242.959C732.946 240.834 731.506 238.752 729.994 236.715C729.714 236.336 728.978 236.254 728.217 235.936C727.493 234.472 727.655 232.72 727.957 230.923C728.117 229.964 728.034 228.971 728.028 227.995C728.025 227.569 727.793 227.108 727.915 226.727C729.154 222.821 728.068 219.267 726.389 215.753C725.59 214.079 725.098 212.275 724.332 210.585C723.629 209.036 722.743 207.56 721.738 205.677C721.682 207.718 720.626 208.44 718.925 208.744C718.168 208.879 717.516 209.567 716.864 209.975L713.224 208.85C713.202 208.434 713.048 207.924 713.171 207.476C713.714 205.496 713.397 203.633 712.541 201.829C711.86 200.397 711.206 198.948 710.404 197.576C710.075 197.012 709.341 196.671 708.877 196.161C707.517 194.665 706.086 193.209 704.903 191.595C703.929 190.267 703.27 188.737 702.434 187.229C702.069 187.305 701.713 187.281 701.516 187.435C699.94 188.672 697.964 189.017 696.108 189.127C693.551 189.279 691.363 190.1 689.134 191.361C690.142 193.894 688.345 195.267 686.306 196.271C684.66 197.081 683.601 198.24 682.418 199.516C680.68 201.389 679.528 203.871 676.821 204.887C676.683 204.939 676.499 205.036 676.46 205.148C675.471 207.994 672.141 208.299 670.094 210.402C670.275 211.725 670.344 213.305 670.733 214.808C671.263 216.858 670.97 218.804 670.178 220.716C669.49 222.378 669.109 223.986 669.777 225.732C670.12 226.629 670.109 227.595 668.824 228.052C668.559 228.146 668.18 228.395 668.158 228.596C667.891 231.124 665.245 231.929 663.9 233.676C662.678 235.264 661.469 235.232 660.134 233.767C659.589 233.174 659.138 232.512 658.793 231.799C657.136 228.289 655.51 224.766 653.917 221.23C653.444 220.182 653.166 219.055 652.691 218.008C651.951 216.381 651.125 214.789 650.321 213.189C650.063 212.675 649.676 212.209 649.488 211.676C647.971 207.38 645.647 203.348 645.404 198.638C645.278 196.199 644.356 193.815 643.901 191.387C643.742 190.539 643.906 189.634 643.579 188.745C643.466 188.92 643.236 189.111 643.259 189.266C643.404 190.223 643.504 191.347 642.573 191.84C641.401 192.462 640.004 192.755 638.669 193.026C638.296 193.102 637.633 192.706 637.387 192.352C636.455 191.011 635.258 189.995 633.812 189.142C633.189 188.775 632.829 188.025 632.187 187.252L634.408 186.497C629.992 184.491 626.472 181.614 623.75 177.44C621.729 177.601 619.481 177.595 617.314 177.994C612.993 178.791 608.739 178.73 604.483 177.919C602.005 177.447 599.538 176.926 597.049 176.506C595.847 176.303 595.102 175.778 594.832 174.66C594.749 174.316 594.554 173.996 594.401 173.668C593.571 171.894 593.411 171.951 591.33 172.715C589.357 173.44 587.467 173.986 585.165 172.981C583.026 172.047 580.807 171.33 578.963 169.908C578.73 169.728 578.474 169.484 578.201 169.454C576.293 169.243 575.705 167.883 575.412 166.47C575.085 164.892 574.02 163.804 573.045 162.633C572.214 161.636 570.941 161.467 569.724 161.466C567.897 161.464 566.414 163.375 567.099 164.981C568.014 167.124 569.033 169.231 571.205 170.655C572.421 171.452 573.387 172.577 574.518 173.603L575.26 173.043L575.656 174.37C578.042 174.758 578.856 176.823 577.763 180.169C578.129 180.42 578.529 180.936 578.952 180.946C581.015 180.994 583.103 181.068 585.146 180.825C587.229 180.577 587.914 178.661 589.043 177.327C589.468 176.824 589.657 176.155 590.049 175.621C590.452 175.074 590.972 174.6 591.772 173.736C592.296 176.983 593.685 179.286 595.429 181.459C596.072 182.26 596.75 182.63 597.732 182.447C599.243 182.166 600.225 182.722 600.97 183.881C601.401 184.551 601.854 185.247 602.459 185.769C604.007 187.103 604.057 188.555 603.031 190.183C602.012 191.801 601.583 193.771 599.411 194.689C598.956 194.88 598.84 196.099 598.821 196.845C598.77 198.87 598.838 198.905 596.81 199.672C595.967 199.991 595.415 200.419 595.023 201.216C594.764 201.743 594.179 202.288 593.605 202.504C591.329 203.359 591.309 203.312 590.432 204.786L581.735 207.771C581.611 208.07 581.52 208.2 581.505 208.337C581.202 211.025 580.603 211.727 577.774 212.497C576.814 212.758 575.816 212.895 574.831 213.066C573.528 213.293 572.29 213.57 571.467 214.719C570.896 215.517 569.934 215.666 568.989 215.655C568.018 215.644 567.242 215.905 566.467 216.523C565.789 217.063 564.904 217.454 564.044 217.701C562.468 218.155 560.825 218.163 559.475 219.443C558.45 220.416 555.03 220.085 554.006 219.205C553.65 218.9 553.283 218.295 553.37 217.907C553.935 215.395 552.255 213.389 551.857 211.105C551.737 210.416 551.516 209.717 551.564 209.032C551.721 206.81 551.023 204.901 549.226 203.495C548.053 202.578 547.575 201.44 546.981 200.175C546.183 198.476 545.002 196.613 543.401 195.646C540.609 193.961 539.766 191.586 539.341 188.844C538.862 185.741 537.388 183.208 534.707 181.307C534.302 181.02 533.869 180.615 533.731 180.182C532.923 177.652 531.136 175.684 529.606 173.562C528.802 172.446 528.175 171.219 527.378 170.098C526.814 169.305 526.101 168.605 525.147 167.51L524.264 169.173L521.404 167.767C522.16 169.629 522.736 171.247 523.463 172.802C525.016 176.123 526.667 179.403 528.235 182.717C528.754 183.813 529.274 184.752 530.416 185.532C533.048 187.329 533.582 190.295 534.363 193.038C534.732 194.336 534.929 195.725 534.895 197.071C534.843 199.046 536.031 200.454 537.541 201.19C539.917 202.348 540.519 204.393 540.631 206.324C540.837 209.859 542.916 211.572 546.13 212.502C547.105 212.785 547.612 213.282 548.169 214.013C549.264 215.45 550.566 216.748 551.778 218.108C552.403 218.81 553.01 219.526 553.641 220.225C554.218 220.864 554.453 221.53 554.164 222.398C553.804 223.482 554.223 224.343 555.242 224.965C555.685 225.235 556.075 225.587 556.462 225.928C557.553 226.885 558.792 227.045 560.04 226.269C560.964 225.695 561.756 225.575 562.816 225.938C563.906 226.312 565.016 226.282 565.858 225.13C566.18 224.688 567.089 224.279 567.629 224.364C570.677 224.845 573.265 223.583 575.914 222.535C576.322 222.374 576.644 222.021 577.073 221.708L578.599 222.396C578.699 222.65 578.801 222.782 578.794 222.909C578.688 224.625 578.562 226.339 578.449 228.055C578.223 231.47 575.99 234.198 574.634 237.22C573.412 239.941 571.98 242.593 570.505 245.209C568.284 249.147 565.465 252.658 561.508 255.273C561.191 255.482 560.905 255.775 560.555 255.889C557.38 256.923 555.423 259.305 553.444 261.599C551.756 263.556 549.805 265.366 548.833 267.804C548.704 268.129 548.134 268.314 547.759 268.554C545.942 269.717 544.483 271.074 543.648 273.094C542.822 275.093 541.507 276.918 540.499 278.86C540.009 279.805 539.642 280.824 539.378 281.842C539.07 283.03 540.023 283.636 540.878 284.264C541.511 284.731 541.646 285.374 541.094 285.959C540.27 286.833 540.352 287.737 540.612 288.753C540.747 289.277 540.589 289.872 540.552 290.434C540.431 292.254 540.524 293.942 542.117 295.337C543.409 296.468 543.888 297.871 543.557 299.735C543.202 301.734 543.594 303.836 543.642 305.894C543.689 307.894 544.007 309.934 543.675 311.887C543.202 314.661 541.501 316.977 539.043 318.65C537.3 319.837 535.429 320.911 533.481 321.764C532.147 322.348 531.139 323.121 530.321 324.192C529.596 325.14 528.697 325.861 527.671 326.551C526.44 327.379 525.448 328.538 524.439 329.623C524.205 329.875 524.211 330.432 524.296 330.81C524.623 332.267 524.882 333.762 525.431 335.147C526.765 338.508 525.778 341.633 524.226 344.656C523.584 345.906 522.252 346.68 520.747 347.013C519.997 347.179 519.225 347.261 518.481 347.445C517.121 347.782 516.331 348.601 516.718 349.813C517.374 351.867 516.348 353.588 515.796 355.413C515.247 357.23 514.345 358.741 512.655 360.036C511.152 361.188 510.23 362.994 509.019 364.488C508.001 365.746 506.983 367.008 505.877 368.198C504.811 369.346 503.633 370.403 502.507 371.502C500.605 373.357 498.524 374.902 495.73 375.432C494.694 375.628 493.7 376.058 492.702 376.419C490.094 377.359 487.39 377.128 484.706 377.153C483.486 377.164 482.332 377.514 481.164 377.743C479.274 378.115 477.339 378.597 475.452 378.738C474.008 378.846 472.482 377.831 471.007 377.283C470.832 377.218 470.61 376.93 470.641 376.782C470.913 375.447 470.2 374.483 469.481 373.451C469.258 373.13 469.447 372.179 469.78 371.96C471.194 371.028 470.894 369.866 470.234 368.926C468.65 366.67 467.797 364.241 467.385 361.57C467.173 360.193 466.359 359.015 464.972 358.102C462.755 356.643 461.939 354.254 461.269 351.888C461.037 351.065 460.985 350.195 460.832 349.35C460.491 347.46 459.974 345.585 459.841 343.678C459.728 342.056 459.98 340.394 460.213 338.764C460.324 337.992 460.278 337.384 459.727 336.791C457.078 333.942 455.521 330.549 454.222 327.014C453.88 326.083 453.319 325.195 452.698 324.397C451.833 323.288 451.659 322.093 451.686 320.76C451.742 317.934 452.391 315.229 453.387 312.561C453.868 311.275 454.361 309.962 454.558 308.628C454.797 307.01 455.67 305.809 456.862 304.74C459.231 302.615 459.544 300.154 458.454 297.44C458.026 296.374 457.529 295.327 457.189 294.236C457.007 293.652 456.854 292.894 457.102 292.383C458.238 290.035 457.138 287.968 456.146 286.064C455.084 284.024 454.085 282.117 453.801 279.759C453.622 278.274 452.258 276.872 451.236 275.563C449.668 273.555 447.847 271.719 446.31 269.694C445.443 268.551 444.871 267.196 444.292 265.886C444.121 265.501 444.208 264.82 444.48 264.488C445.834 262.834 446.033 260.987 446.011 259.019C445.998 257.883 446.179 256.75 446.548 255.662C447.086 254.104 447.329 252.558 446.919 251.002C446.697 250.163 446.59 249.064 445.184 249.067C445.047 249.067 444.83 248.983 444.788 248.885C443.851 246.702 441.963 247.557 440.288 247.709C439.138 247.814 437.987 247.929 436.834 247.975C434.88 248.052 433.989 247.452 433.416 245.766C432.129 241.977 430.048 240.79 425.877 241.219C423.575 241.456 421.475 242.035 419.274 242.799C416.456 243.777 413.827 245.153 410.98 246.021C410.403 246.197 409.6 246.608 409.257 246.403C408.029 245.669 406.566 245.948 405.361 245.516C402.533 244.503 399.94 245.302 397.292 246.067C396.704 246.237 396.093 246.409 395.571 246.702C392.261 248.559 389.561 247.496 387.116 245.321C385.464 243.851 383.907 242.298 381.777 241.365C381.291 241.152 380.889 240.57 380.682 240.071C380.171 238.841 379.277 238.007 377.949 237.688C375.535 237.11 375.119 235.169 374.411 233.397C373.914 232.151 373.642 230.731 372.813 229.716C371.169 227.707 369.309 225.824 367.334 224.091C366.428 223.294 365.175 222.884 364.478 221.764C363.551 220.273 362.941 218.863 364.097 217.196C364.762 216.237 364.059 215.392 363.591 214.615C363.228 214.009 362.642 213.523 362.182 213.012C363.095 211.287 363.982 209.634 364.847 207.972C366.149 205.471 366.536 202.793 366.662 200.08C366.684 199.618 366.311 199.157 366.184 198.681C366.059 198.212 365.8 197.645 365.971 197.258C366.662 195.697 366.153 194.305 365.606 192.897L364.428 192.726C364.437 190.511 364.493 188.389 366.253 186.631C366.598 186.287 366.74 185.743 366.902 185.269C367.567 183.322 368.827 181.771 370.747 180.826C371.916 180.25 372.257 179.494 372.192 178.395C372.159 177.828 372.141 177.246 372.238 176.687C372.523 175.034 373.214 173.665 375.177 173.173C376.645 172.805 377.561 172.089 377.517 170.435C377.476 168.969 378.569 168.143 380.112 167.818C384.177 166.962 386.866 164.523 388.663 161.139C388.908 160.678 388.83 160.058 388.844 159.511C388.858 158.944 388.574 158.275 388.813 157.827C389.956 155.689 390.574 153.314 392.87 151.721C394.54 150.562 396.077 149.261 397.97 148.392C398.4 148.195 398.734 147.715 398.996 147.303C399.861 145.939 400.642 144.531 401.512 143.17C402.512 141.607 403.321 141.471 404.462 142.853C405.321 143.894 406.256 144.154 407.621 144.068C409.248 143.966 410.861 143.587 412.568 144.229C413.363 144.527 414.69 143.771 415.722 143.369C416.555 143.044 417.311 142.538 418.093 142.102C418.671 141.78 419.329 141.525 419.789 141.091C421.007 139.941 422.437 139.481 424.131 139.335C426.647 139.119 429.164 138.801 431.644 138.344C433.13 138.07 434.485 137.94 435.909 138.515C436.45 138.734 437.285 138.734 437.819 138.497C439.271 137.853 440.682 137.763 442.267 137.867C444.125 137.989 446.054 138.314 447.913 137.334C448.519 137.015 449.539 137.253 450.325 137.413C451.168 137.583 451.959 137.962 453.158 138.385C453.853 139.329 452.869 140.298 452.089 141.341C453.794 143.117 453.164 144.723 451.762 146.373C450.334 148.055 450.387 148.114 452.429 149.427C453.429 150.071 454.422 150.754 455.513 151.242C456.807 151.822 458.147 152.162 459.713 151.937C460.954 151.758 462.305 152.035 463.558 152.298C465.058 152.612 466.158 153.42 466.48 154.962C466.749 156.256 467.688 156.884 469.096 156.899C471.417 156.925 473.449 157.59 475.179 159.046C475.617 159.414 476.205 159.722 476.78 159.839C478.837 160.258 480.229 158.764 479.583 156.888C479.444 156.485 479.238 156.102 479.069 155.725C480.165 153.556 481.795 152.432 484.379 152.015C486.829 151.621 488.734 151.973 490.467 153.52C490.766 153.787 491.259 153.882 491.681 154.008C492.186 154.159 492.76 154.17 493.218 154.392C496.098 155.79 499.32 156.124 502.403 156.889C503.875 157.254 505.379 157.546 506.799 158.04C507.773 158.378 508.574 158.349 509.4 157.792C509.589 157.664 509.792 157.554 509.976 157.423C512.311 155.763 514.626 155.831 517.027 157.242C518.697 158.223 520.585 157.917 522.396 157.556C523.5 157.337 523.94 156.414 524.229 155.499C525.077 152.819 525.825 150.126 526.862 147.482C527.572 145.674 527.234 143.523 527.354 141.524C527.383 141.036 527.376 140.547 527.383 140.15C526.244 140.081 525.273 139.892 524.337 140.003C523.395 140.115 522.372 140.359 521.586 140.838C519.402 142.167 518.393 142.186 516.252 140.701C515.584 140.238 514.858 139.775 514.075 139.544C513.027 139.235 511.951 138.842 511.025 140.127C510.387 141.011 509.255 141.213 508.15 140.531C507.403 140.069 506.617 139.639 505.792 139.316C505.262 139.109 504.631 139.065 504.042 139.058C503.296 139.049 502.545 139.152 501.75 139.21C501.409 138.336 501.194 137.576 500.821 136.893C500.53 136.36 500.135 135.804 499.625 135.466C498.083 134.444 498.053 134.483 499.549 132.827C498.986 131.762 498.203 130.697 497.878 129.516C497.671 128.763 498.143 127.838 498.345 126.816C497.42 126.598 496.217 126.261 494.987 126.041C493.755 125.821 492.489 125.343 491.522 126.817C491.242 127.244 490.163 127.226 489.213 127.474C489.479 128.094 489.714 128.581 489.899 129.085C490.067 129.541 490.188 130.011 490.315 130.479C490.451 130.982 490.531 131.503 490.71 131.99C490.832 132.321 491.224 132.597 491.25 132.918C491.309 133.658 491.439 134.522 491.091 135.111C490.925 135.391 489.728 135.207 489.011 135.135C488.688 135.103 488.398 134.831 487.811 134.517C489.516 136.871 489.8 138.395 488.967 139.969C488.331 139.775 487.706 139.463 487.051 139.407C484.684 139.209 484.755 139.219 484.083 137.127C483.719 135.996 483.141 134.902 482.494 133.885C481.566 132.427 480.481 131.059 479.475 129.646C479.186 129.238 479.031 128.708 478.657 128.4C477.815 127.705 477.656 126.861 477.748 125.884C478.017 123.002 476.642 120.962 474.076 119.513C473.433 119.15 472.908 118.612 472.27 118.24C471.396 117.73 470.442 117.336 469.565 116.827C468.482 116.198 467.134 115.704 466.461 114.789C465.561 113.565 464.243 112.855 463.257 111.812C461.7 110.163 460.088 109.896 457.993 111.221C457.952 111.488 457.997 111.953 457.801 112.306C457.269 113.264 457.608 113.945 458.38 114.563C459.876 115.76 461.222 116.979 462.071 118.775C462.767 120.25 464.514 121.091 466.25 121.513C467.171 121.736 467.937 121.797 468.324 122.844C468.513 123.356 469.439 123.725 470.114 123.95C471.88 124.539 473.427 125.422 474.73 126.647C475.611 127.474 475.514 127.802 474.416 128.753L471.158 127.414C470.353 128.168 469.929 128.67 470.405 129.614C471.351 131.491 470.279 134.269 468.161 134.903C466.421 135.424 465.543 136.039 465.672 137.862C465.754 139.02 464.732 139.473 463.585 138.945C461.737 138.098 459.917 137.201 458.128 136.253C457.752 136.054 457.278 135.313 457.386 135.172C457.701 134.758 458.258 134.339 458.773 134.261C459.423 134.163 460.136 134.522 460.805 134.466C462.779 134.299 464.746 134.025 466.528 133.814C468.167 132.154 467.44 130.575 466.981 129.015C466.924 128.824 466.79 128.578 466.617 128.505C464.382 127.56 462.844 125.772 460.895 124.486C460.653 124.327 460.364 124.216 460.079 124.133C456.085 122.967 453.3 120.513 451.254 117.184C450.74 116.348 449.913 115.631 449.087 115.027C447.667 113.987 447.346 114.057 445.914 115.176C445.854 115.222 445.814 115.301 445.748 115.326C443.881 116.045 442.104 116.884 440.434 117.988C439.944 118.312 438.845 117.802 438.02 117.71C436.441 117.535 434.847 117.185 433.278 117.282C431.695 117.378 431.035 118.255 430.889 119.461C430.762 120.507 430.887 121.856 430.241 122.512C429.132 123.64 427.618 124.695 426.077 125.108C424.411 125.554 423.43 126.293 422.607 127.616C421.913 128.73 420.941 129.697 420.023 130.815L420.768 132.883C419.826 133.975 418.346 134.854 418.261 136.525C418.253 136.687 417.982 136.863 417.801 136.993C417.619 137.125 417.368 137.177 417.198 137.318C414.722 139.379 411.952 140.392 408.566 140.14C407.236 140.041 405.78 140.687 404.45 141.165C403.148 141.632 402.328 141.158 401.736 140.244C400.559 138.427 398.965 137.797 396.687 138.276C395.778 138.468 394.765 138.19 393.631 138.115C393.654 136.934 393.762 135.998 393.658 135.085C393.583 134.423 393.402 133.648 392.958 133.18C392.178 132.358 392.39 131.667 392.839 130.834C393.53 129.55 394.156 128.237 394.806 126.934C394.936 126.673 395.144 126.405 395.152 126.138C395.226 123.533 395.266 120.928 395.321 117.984C396.213 117.404 397.441 116.579 398.706 115.808C398.921 115.677 399.352 115.667 399.58 115.778C400.962 116.45 402.437 116.01 403.866 116.097C407.536 116.322 411.199 116.615 414.868 116.849C416.783 116.971 417.135 116.697 417.574 114.997C417.859 113.883 418.154 112.771 418.459 111.662C418.799 110.438 418.827 109.254 418.172 108.113C416.62 105.411 414.757 103.023 411.166 102.596C409.344 102.379 409.243 101.052 408.728 99.5979C410.227 99.3049 411.621 98.8529 413.021 98.8095C414.412 98.7668 415.81 99.1345 417.479 99.3596L417.707 96.5287C418.581 96.0032 419.425 95.7008 420.3 96.6123C420.518 96.8393 420.972 96.9191 421.335 96.9656C422.851 97.1599 426.575 94.9973 427.278 93.6758C427.591 93.0874 428.138 92.5329 428.719 92.1526C429.659 91.5384 430.698 91.0487 431.725 90.564C433.655 89.6543 435.279 88.5283 435.894 86.4424C436.037 85.959 436.413 85.5686 437.227 85.4868C438.154 85.3938 439.003 84.6929 439.94 84.4364C441.298 84.0642 442.762 84.1597 443.919 83.0464C444.282 82.6968 445.362 82.9917 446.35 82.9917C447.553 82.1568 447.687 81.0315 446.715 79.6604C446.181 78.906 445.878 78.007 445.476 77.1828C445.732 76.375 445.92 75.5319 446.268 74.7486C446.7 73.7761 447.04 72.752 448.465 72.4697C449.139 72.3364 449.65 71.5556 450.331 71.2847C450.988 71.0238 451.915 70.761 452.46 71.0018C453.305 71.3746 452.855 72.2176 452.591 72.9079C452.339 73.5674 452.192 74.2601 451.973 74.9316C451.776 75.5376 451.645 76.1883 451.307 76.7245C450.255 78.3917 450.643 79.9753 452.406 80.8259C453.066 81.144 453.712 81.4923 454.401 81.7425C454.604 81.8161 454.932 81.6017 455.38 81.4653C454.552 80.7536 452.966 80.5323 454.138 79.0575C454.37 78.7652 453.828 77.9441 453.622 77.3048C454.008 76.7666 454.238 76.165 455.306 76.2178C456.047 76.2543 456.904 75.7928 457.57 75.3635C457.924 75.1353 458.112 74.5047 458.13 74.0514C458.146 73.6635 457.873 73.2285 457.62 72.8852C455.997 70.6849 454.345 68.5035 452.541 66.1007C451.155 66.9079 449.58 67.7654 448.073 68.7172C445.587 70.2863 442.665 70.3341 440.837 68.7474C440.562 68.5079 440.164 68.2256 440.134 67.9314C439.828 64.8867 438.047 62.1043 438.573 58.893C438.745 57.8394 439.035 57.0926 440.126 56.7638C442.273 56.1169 444.119 54.9582 446.034 53.8864C446.975 53.3595 448.178 53.2508 449.258 52.9352C449.835 52.7661 450.489 52.6718 450.955 52.3486C452.232 51.4629 453.436 50.4834 454.652 49.5228C455.294 49.0155 455.897 48.4666 456.525 47.943C456.755 47.7506 457.222 47.5614 457.211 47.3979C457.092 45.6094 459.151 45.278 459.798 44.0157C459.925 43.768 460.158 43.4574 460.406 43.3883C462.835 42.715 463.807 40.6806 465.215 39.0411C465.538 38.6645 466.032 38.2119 466.484 38.1653C468.919 37.9145 469.957 35.8984 471.579 34.6674C472.791 33.7477 473.246 33.2674 474.494 33.874C475.295 34.2626 475.871 34.2651 476.627 33.9319C477.05 33.7486 477.511 33.6589 477.974 33.6698C479.211 33.7119 480.139 33.3095 481.058 32.4772C481.658 31.9327 482.668 31.5662 483.517 31.5115C488.459 31.1922 493.387 31.2915 498.27 32.0421C500.185 32.3363 500.371 32.5161 500.583 34.0394C505.2 35.0471 509.692 36.1857 514.26 36.9715C517.564 37.5398 520.502 38.8267 523.484 40.0815C524.089 40.3367 524.701 40.7265 525.107 41.2049C526.091 42.3642 525.807 43.4008 524.464 44.2634C522.812 45.3246 521.015 45.94 519.021 45.82C516.293 45.6559 513.573 45.4164 510.879 45.2121C511.238 45.5974 512.346 45.8112 511.932 46.9283C511.827 47.2124 512.684 47.7116 512.91 48.1919C513.797 50.0798 515.656 50.3904 518.062 50.8311C517.237 50.2847 516.726 50.0697 516.417 49.7051C516.125 49.3606 515.786 48.7483 515.934 48.4516C516.149 48.0222 516.759 47.5614 517.25 47.496C517.885 47.4117 518.591 47.6513 519.231 47.8468C520.731 48.3044 522.211 48.8193 523.969 49.4002C522.619 47.1276 522.762 46.8975 525.231 46.0985C525.998 45.8501 526.659 45.3158 527.401 44.9769C528.143 44.6387 528.91 44.3294 529.696 44.1037C530.412 43.8981 531.17 43.8221 532.236 43.6297C531.248 42.6597 530.744 41.8688 531.023 40.6599C531.174 40.0035 530.459 39.1875 530.137 38.4489C533.418 37.4348 536.052 37.7297 538.049 39.5786L535.208 41.3143C536.572 41.7921 537.729 42.2636 538.933 42.5968C539.759 42.8262 540.577 42.571 540.658 41.6494C540.768 40.4047 541.71 40.1588 542.693 39.9225C545.37 39.28 548.082 38.8166 550.533 37.4373C551.107 37.1171 551.762 36.9489 552.426 36.9512C553.09 36.9535 553.737 37.1263 554.296 37.4505C555.31 38.0308 556.317 37.9629 557.399 37.7957C559.746 37.4329 562.089 36.9967 564.45 36.7917C565.611 36.6905 566.808 37.0369 568.291 37.2173C568.005 36.7081 567.825 36.4434 567.7 36.1574C567.233 35.0886 567.37 34.7397 568.594 34.5052C571.109 34.0243 573.66 33.8496 576.105 34.6329C579.139 35.6054 582.112 36.7332 585.121 37.7737C585.946 38.0591 586.803 38.2716 587.645 38.5174L587.885 37.9931C586.552 37.3719 585.245 36.6949 583.874 36.1523C583.136 35.8594 582.611 35.5438 582.238 34.8227C581.698 33.7817 580.919 32.8512 580.066 31.6184C580.163 30.5591 581.379 29.9971 582.466 29.4992C582.364 26.5042 582.838 25.9944 585.977 25.6014C586.434 25.5442 586.902 25.5543 587.364 25.5656C590.167 25.6348 592.406 26.2251 592.109 30.0373L594.123 30.6176C594.399 31.1771 594.653 31.7479 594.956 32.2936C595.445 33.1725 596.085 33.9929 596.444 34.9151C596.847 35.9524 597.442 36.7225 598.339 37.4706C600.028 38.8807 600.617 40.8893 598.516 42.39C597.832 42.8778 597.301 43.5505 596.616 44.2213C598.453 44.8512 599.871 44.7242 601.234 43.824C602.861 42.7489 603.142 41.1144 602.101 39.5962C601.642 38.9285 601.559 38.034 601.26 37.1048C599.249 37.4229 597.847 36.1517 597.321 34.4933C596.756 32.6916 595.37 31.7737 594.082 30.6553ZM483.376 69.8783C482.935 70.5529 482.532 70.0607 482.415 69.7495C482.292 69.4226 482.333 68.8543 482.566 68.6235C483.717 67.485 484.795 66.3515 486.533 65.7738C489.078 64.9282 491.529 64.3511 494.162 65.1225C494.666 65.2702 495.228 65.3614 495.751 65.318C496.309 65.2721 496.913 65.13 497.391 64.8616C498.115 64.4555 498.747 63.9042 499.7 63.2089C498.826 62.8763 498.078 62.3136 497.386 62.3777C494.942 62.6047 492.425 62.7682 490.109 63.4773C487.158 64.3807 484.516 64.5837 481.781 63.0605C480.802 62.5154 480.303 62.0087 480.216 60.9658C480.154 60.2221 479.99 59.4048 479.582 58.7906C478.418 57.0398 478.613 55.1405 480.317 53.8618C481.037 53.3206 481.829 52.8566 482.619 52.4033C484.593 51.2705 486.148 49.7089 487.928 48.3233C485.796 46.6278 482.265 46.9471 479.89 48.8784L480.025 51.0058C477.372 52.4046 474.751 53.9423 471.984 55.1883C470.216 55.9842 469.961 57.2648 469.939 58.7221C469.919 60.0372 470.18 61.2279 471.74 61.8679C472.534 62.1936 473.182 62.8933 473.776 63.5232C474.021 63.7822 474.163 64.4272 473.987 64.6806C473.126 65.9209 472.528 67.4982 470.771 67.8849C469.041 68.2658 468.79 69.2585 468.651 70.717C468.472 72.6143 468.033 74.538 466.84 76.1977C466.458 76.2241 466.152 76.2543 465.846 76.2656C464.614 76.3115 463.336 76.1983 463.03 77.836C462.976 78.1239 462.197 78.464 461.733 78.4999C460.908 78.5634 460.068 78.4131 459.244 78.3528L458.027 76.529L456.767 80.5292C457.828 80.5292 458.959 80.2595 459.797 80.599C460.787 81.0007 461.525 81.928 462.442 82.6862C464.253 82.1191 466.053 81.4816 467.898 80.9975C469.673 80.5317 471.485 80.1809 473.298 79.8804C473.739 79.8075 474.278 80.0741 474.718 80.2828C475.559 80.6826 477.119 80.577 477.764 80.0124C478.546 79.3285 479.33 78.6463 479.883 78.1635C480.173 76.2882 480.394 74.6134 480.703 72.9512C480.884 71.9674 481.494 71.2118 482.571 70.927C483.2 70.761 483.404 70.4127 483.377 69.8721C484.753 70.6717 485.894 71.8624 487.556 72.2321C488.822 69.4112 488.787 69.3132 486.935 68.8474C485.473 69.2717 484.424 69.5753 483.376 69.8783ZM526.348 110.655C525.95 112.176 525.409 112.663 523.849 112.427C522.377 112.204 521.224 112.267 520.096 113.405C519.163 114.346 518.043 114.025 517.703 112.801C517.508 112.098 517.184 111.72 516.537 111.377C515.01 110.568 515.034 110.53 516.006 108.873C514.657 108.802 513.384 108.659 512.66 107.423C512.519 107.183 511.838 107.158 511.4 107.148C509.844 107.11 509.022 108.045 508.097 109.099C507.426 109.864 507.066 110.594 506.723 111.485C506.427 112.255 505.12 112.8 505.028 113.518C504.703 116.051 502.575 117.801 502.022 119.966C502.588 120.927 502.948 121.89 503.622 122.589C504.352 123.344 505.375 123.852 506.292 124.484C505.558 125.794 504.42 125.572 503.382 125.54C502.704 125.518 501.946 125.246 501.897 126.419C502.816 126.419 503.739 126.515 504.629 126.387C505.277 126.293 506.247 126.04 506.44 125.617C507.222 123.891 508.696 124.054 510.137 124.191C511.412 124.311 512.447 124.096 513.604 123.436C516.287 121.907 519.373 121.497 522.428 121.139C522.838 121.091 523.282 121.352 523.711 121.463C526.273 122.131 528.586 123.364 531.19 124.018C533.226 124.528 535.254 124.22 537.253 124.634C538.46 124.885 541.184 123.111 541.449 122.303C541.815 121.191 540.872 119.718 539.17 118.655C536.85 117.207 534.693 115.535 532.191 114.339C530.972 113.757 529.709 113.23 528.577 112.526C527.934 112.125 527.109 111.441 527.079 110.843C527.024 109.729 528.398 110.25 529.035 109.883C529.572 108.591 530.134 107.327 528.76 106.023C526.448 107.396 523.128 106.342 521.231 108.534C522.098 111.23 524.904 109.386 526.348 110.655ZM525.852 263.236C524.827 262.951 524.191 262.946 523.844 262.648C522.323 261.343 520.764 262.216 519.323 262.688C518.35 263.007 517.429 263.762 517.368 264.908C517.287 266.449 517.297 267.992 517.27 269.442L521.336 269.701L525.852 263.236ZM573.929 176.374C575.139 175.407 575.139 175.407 573.765 174.489L573.929 176.374ZM834.14 57.5339C833.617 56.1156 833.617 56.1156 832.477 56.2715L834.14 57.5339ZM139.657 208.771C141.314 209.963 143.402 209.753 145.358 209.147C147.44 208.502 149.452 208.596 151.499 208.882C151.99 208.95 152.449 209.302 152.881 209.58C153.723 210.123 154.536 210.706 155.646 211.468C155.742 212.715 156.003 214.3 155.049 215.876C154.609 216.603 154.511 217.512 154.287 218.345C153.931 219.667 153.651 221.008 153.245 222.316C152.347 225.205 152.267 227.85 155.253 229.772C156.002 230.255 156.596 230.961 157.377 231.382C158.754 232.126 160.217 232.374 161.759 231.558C162.561 231.133 163.441 230.834 164.297 230.504C167.238 229.371 171.133 231.02 172.378 234.094C173.522 233.012 174.694 232.066 175.639 230.952C176.334 230.134 176.949 229.141 177.195 228.145C177.428 227.201 177.905 226.627 178.667 226.074C180.329 224.869 182.01 223.955 184.225 223.717C185.736 223.554 187.547 222.853 188.523 221.821C189.808 220.461 190.96 220.659 192.417 220.908C192.941 222.663 191.625 223.248 190.254 223.912L190.675 225.518C192.386 223.9 194.976 223.878 196.02 221.43L197.533 223.339C199.038 223.181 200.376 223.439 201.312 224.924C201.668 225.489 202.849 225.746 203.701 225.849C205.583 226.078 207.417 226.078 209.165 227.112C210.575 227.948 212.351 227.89 213.9 226.717C214.446 226.303 215.282 226.089 216 226.038C217.448 225.936 218.907 226.007 220.287 226.007C221.168 226.733 218.818 228.122 221.077 228.569L221.998 226.079C222.933 225.876 223.952 225.514 224.613 226.532C225.055 227.211 224.401 228.183 223.02 229.118C223.542 229.688 224.251 230.185 224.526 230.845C224.777 231.447 224.555 232.226 224.542 232.931C225.574 233.249 226.567 233.599 227.588 233.859C229.357 234.31 230.532 235.423 231.16 236.918C231.711 238.229 232.686 239.053 233.729 239.988C235.498 241.575 237.321 242.383 239.86 241.999C241.689 241.722 243.538 242.001 245.225 242.837C245.612 243.028 246.1 243.065 246.549 243.135C248.032 243.365 249.309 243.844 250.124 245.14C250.458 245.671 250.98 246.204 251.561 246.472C253.746 247.478 254.401 249.399 254.835 251.346C255.216 253.058 255.738 254.617 256.879 256.029C257.334 256.59 257.521 257.471 257.51 258.208C257.475 260.733 258.315 261.815 260.87 262.276C261.394 262.371 261.899 262.55 262.551 262.727L263.224 264.482C265.041 263.774 266.657 264.284 268.247 265.042C268.996 265.4 269.771 265.709 270.567 265.966C272.754 266.67 274.654 267.643 275.067 270.169C277.229 269.231 278.995 269.86 280.737 270.607C282.872 271.523 285.053 271.936 287.453 271.484C288.279 271.328 289.318 271.516 290.074 271.877C292.249 272.914 294.177 274.29 295.751 276.063C296.901 277.359 298.298 278.332 300.177 278.484C303.278 278.735 304.544 280.587 305.208 283.164C306.094 286.599 305.473 289.921 303.927 293.014C302.899 295.067 301.273 296.921 299.65 298.651C298.827 299.528 298.14 300.39 297.564 301.413C296.886 302.616 296.162 303.89 295.127 304.81C293.807 305.986 293.042 307.458 292.88 308.911C292.672 310.78 293.093 312.729 293.46 314.602C293.639 315.516 293.941 316.284 293.555 317.277C293.143 318.333 293.2 319.533 292.961 320.654C292.784 321.476 292.45 322.27 292.201 323.081C291.955 323.884 291.45 324.727 291.543 325.493C291.817 327.733 290.849 329.574 289.581 331.314C288.858 332.306 288.294 333.203 288.475 334.475C288.566 335.11 288.331 336 287.875 336.456C286.995 337.335 285.852 337.963 285.289 339.147C285.159 339.42 284.512 339.54 284.081 339.629C283.481 339.752 282.86 339.784 282.247 339.848C279.474 340.141 276.842 340.735 274.432 342.237C273.108 343.062 271.383 343.309 270.027 344.1C265.462 346.761 265.544 347.787 266.119 353.014C266.172 353.503 266.487 353.96 266.56 354.45C266.861 356.502 266.756 358.399 264.734 359.884C263.464 360.816 262.475 361.98 262.338 363.675C262.22 365.128 261.572 365.433 259.757 365.37C258.93 366.925 258.104 368.434 257.599 370.226C256.75 373.241 255.365 376.195 253.046 378.632C252.228 379.493 251.45 379.974 250.051 379.672C247.141 379.044 244.161 378.678 240.664 378.117C241.439 378.552 241.728 378.794 242.066 378.89C243.908 379.41 245.125 380.406 245.409 382.288C245.474 382.722 245.846 383.23 246.242 383.473C247.427 384.2 247.401 385.222 247.181 386.323C247.098 386.748 246.969 387.165 246.798 387.569C246.316 388.681 246.114 390.164 245.228 390.802C243.687 391.91 241.932 392.9 239.745 392.881C237.709 392.863 235.662 393.191 233.743 393.356L234.962 398.8C232.829 401.663 229.901 400.236 226.865 399.715C227.363 400.818 227.682 401.739 228.192 402.554C228.412 402.903 229.003 403.135 229.473 403.232C229.979 403.336 230.565 403.124 231.075 403.222C231.984 403.397 232.585 404.003 232.563 404.871C232.541 405.741 231.879 406.1 230.96 406.024C230.734 406.005 230.504 406.021 230.231 406.021C230.177 407.612 229.578 409.173 230.42 410.736C230.576 411.027 230.081 411.797 229.686 412.151C228.914 412.841 228.01 413.407 227.14 413.998C225.769 414.929 225.532 416.187 226.727 417.252C227.819 418.227 229.017 419.087 230.596 419.429C233.081 419.968 233.788 422.161 232.132 423.994C231.785 424.377 231.33 424.674 230.94 425.025C230.663 425.273 230.285 425.507 230.171 425.815C229.527 427.543 228.761 429.262 228.405 431.041C228.098 432.578 229.272 433.767 230.465 434.618C231.679 435.484 232.426 436.52 232.957 437.814C233.234 438.468 233.662 439.055 234.212 439.533C235.951 441.028 237.779 442.4 240.109 443.107C241.602 443.561 243.021 444.217 244.749 444.89C243.227 446.053 241.765 445.731 240.4 445.679C238.344 445.6 236.294 445.412 234.244 445.254C233.487 445.195 232.705 445.179 231.988 444.982C231.038 444.721 231.401 443.784 231.105 443.187C230.77 442.512 230.188 441.885 229.559 441.416C228.178 440.387 228.138 440.433 228.206 438.909C227.425 438.428 226.796 438.786 226.146 439.245C223.163 441.352 221.363 441.309 218.92 438.739C217.769 437.527 216.115 436.537 216.143 434.515C216.152 433.905 215.511 433.219 215.008 432.704C213.072 430.721 212.189 428.192 210.895 425.876C210.758 425.63 210.555 425.315 210.618 425.085C211.376 422.355 209.526 420.299 208.556 418.065C207.918 416.597 207.236 415.206 207.228 413.591C207.223 413.232 207.19 412.875 207.129 412.521C206.817 410.629 206.564 408.723 206.145 406.853C205.912 405.814 205.461 404.805 204.975 403.844C204.777 403.453 204.2 402.933 203.839 402.967C201.872 403.152 201.531 401.773 201.18 400.582C200.593 398.595 200.043 396.572 199.793 394.525C199.536 392.415 198.815 390.493 197.893 388.612C197.488 387.787 197.433 387.121 197.868 386.196C198.304 385.271 198.188 384.12 198.278 383.067C198.375 381.939 198.238 380.766 198.539 379.689C199.258 377.123 199.322 374.582 198.79 372.026C198.383 370.074 197.858 368.145 197.479 366.19C197.308 365.304 197.358 364.377 197.324 363.467C197.312 363.11 197.454 362.719 197.345 362.399C196.315 359.396 197.201 356.352 197.228 353.326C197.239 352.055 197.037 350.784 196.92 349.514C196.888 349.159 196.776 348.81 196.764 348.456C196.56 342.31 196.556 336.148 196.078 330.025C195.88 327.487 195.946 324.596 193.659 322.637C191.257 320.579 188.935 318.39 185.828 317.188C184.136 316.534 182.474 315.808 180.756 315.216C178.881 314.571 178.16 312.881 176.96 311.655C175.873 310.544 174.668 309.344 174.672 307.612C174.672 307.484 174.568 307.338 174.472 307.232C171.907 304.396 171.069 300.732 169.25 297.54C168.999 297.101 168.825 296.567 168.446 296.257C165.878 294.154 165.553 290.859 163.66 288.387C162.47 286.833 161.695 285.025 159.501 284.34C158.61 284.062 158.133 283.397 158.272 282.307C158.37 281.534 158.083 280.607 157.653 279.924C156.72 278.444 157.044 277.201 158.175 275.995C159.082 275.028 160.027 274.091 160.932 273.123C161.433 272.586 161.327 272.148 160.714 271.702C158.273 269.926 158.082 267.539 159.393 264.975C160.119 263.556 161.728 262.297 161.109 260.315C160.852 259.49 161.88 258.906 162.744 258.807C164.439 258.611 165.27 257.975 165.44 256.242C165.541 255.222 166.307 254.246 167.505 253.534C169.083 252.597 169.916 250.906 170.325 249.235C170.734 247.566 170.735 245.82 170.976 244.115C171.296 241.851 170.471 239.895 169.324 238.005C168.425 236.524 168.435 236.519 168.806 234.668L165.44 232.625L162.786 234.717C162.781 235.01 162.696 235.313 162.785 235.56C163.053 236.301 163.116 237.079 162.271 237.421C161.354 237.793 160.176 237.992 159.512 237.107C158.524 235.788 157.16 235.47 155.58 235.251C154.036 235.036 152.685 234.409 151.991 232.916C151.238 231.296 149.519 230.662 147.978 229.969C145.666 228.93 145.047 227.715 146.259 225.57C146.563 225.032 147.37 224.736 148.103 224.216C148.101 224.363 148.161 224.191 148.095 224.11C147.869 223.835 147.598 223.593 147.361 223.354C145.003 224.503 144.224 224.329 143.358 222.08C142.827 220.7 141.763 219.848 140.696 218.971C140.305 218.649 139.578 218.529 139.018 218.565C136.876 218.702 135.181 217.676 133.424 216.851C132.954 216.63 132.71 216.004 132.265 215.442C129.071 216.223 127.194 214.478 125.451 212.321C124.592 211.258 123.448 210.39 122.397 209.47C121.36 208.564 120.123 208.396 118.755 208.783C117.948 209.012 117.123 209.185 116.308 209.391C114.759 209.783 113.237 209.688 111.777 209.15C109.147 208.182 106.537 207.167 103.917 206.175C101.992 205.446 100.421 204.205 98.7015 203.197C96.2947 201.785 93.6233 200.775 91.688 198.727C88.8891 198.141 88.7906 195.898 88.3989 193.886C88.3165 193.462 88.5947 192.884 88.8875 192.491C90.4512 190.396 89.8603 188.431 88.6855 186.481C88.2015 185.677 87.6087 184.916 87.2403 184.067C86.1251 181.495 84.4446 179.355 82.0627 177.696C81.1405 177.054 80.5864 176.316 81.0637 175.121C81.2174 174.736 81.0444 174.148 80.8239 173.75C80.0261 172.307 78.9196 171.027 78.7169 169.298C78.6507 168.732 78.0608 168.174 77.5911 167.719C75.6751 165.864 75.1337 163.567 75.0823 161.079C75.0592 159.945 75.3655 158.521 74.7591 157.767C74.1803 157.048 72.6087 157.028 71.5016 156.709C69.7235 159.007 69.5828 161.593 71.2209 163.727C72.1335 164.916 72.8074 166.097 72.8486 167.627C72.8682 168.369 73.41 169.082 73.6563 169.826C74.1516 171.32 74.6631 172.811 75.0634 174.329C75.6753 176.649 75.9724 179.057 77.6129 181.033C78.4018 181.983 78.6788 183.102 77.9907 184.238C77.8026 184.549 77.3266 184.71 76.8265 185.045C76.4762 184.407 76.2251 183.914 75.9413 183.439C75.241 182.268 74.6374 181.078 73.1504 180.476C71.4672 179.794 71.2655 179.183 71.6134 177.379C72.093 174.893 71.7644 174.715 69.3338 173.703C68.0426 173.165 66.9807 171.954 66.1132 170.843C65.5052 170.064 66.0757 169.118 67.0733 168.561C68.5652 167.729 68.7721 167.169 68.0726 165.81C67.9405 165.554 67.8115 165.275 67.6034 165.078C65.7759 163.356 65.6843 161.215 65.6536 158.917C65.6203 156.432 65.2814 153.918 64.7113 151.497C64.2054 149.35 62.37 148.052 60.1686 147.442C57.6679 146.75 57.6742 146.843 57.6547 144.421C57.6377 142.36 57.3793 140.296 57.4877 138.241C57.5823 136.45 57.7717 134.714 56.7057 133.115C56.5554 132.889 56.5031 132.554 56.5359 132.282C56.8264 129.909 56.7238 127.453 58.761 125.512C59.5594 124.751 60.4632 123.802 60.6596 122.833C61.2325 120.014 63.4038 118.223 65.1394 116.135C67.5124 113.279 70.0921 110.544 72.1701 107.515C73.6875 105.303 74.5383 102.702 75.7394 100.162C74.9395 99.3294 74.2237 98.614 73.5429 97.8709C72.3676 96.5878 71.53 95.2167 72.4 93.3848L76.9376 93.784L77.146 93.435C76.8068 93.1779 76.5104 92.8297 76.122 92.6794C74.3605 91.9967 73.8314 91.4026 74.646 89.995C75.732 88.1184 75.6454 86.2073 75.3957 84.3276C75.1241 82.2806 75.6308 80.6744 77.5307 79.3555C77.2573 78.7916 77.0002 78.2974 76.7777 77.7895C76.6102 77.4079 76.3333 76.9986 76.3695 76.6195C76.5778 74.416 76.6041 74.4179 75.2004 72.481C75.419 72.1252 75.6905 71.7147 75.9287 71.2878C76.4371 70.3775 76.0953 69.437 75.0539 69.4232C73.1673 69.398 72.585 68.1891 72.0537 66.923C71.4334 65.4437 70.5508 64.558 68.6654 64.3681C66.0176 64.1016 63.5473 63.0548 60.7923 62.9655C59.0095 62.9077 57.3867 61.8868 56.2686 60.3283L51.4517 61.7749C51.2282 63.3522 50.0721 64.05 48.4132 64.4033C45.7883 64.9622 43.2057 65.7078 40.5938 66.3277C40.0984 66.4452 39.5471 66.3446 39.0195 66.3446C39.1064 65.1401 39.1064 65.1401 41.1164 63.454C40.4489 63.5747 40.052 63.5873 39.7061 63.7181C37.7701 64.4524 35.7469 65.0464 33.9364 65.997C26.0208 70.1493 17.2534 72.3276 9.05232 75.8073C8.42115 76.0751 7.81206 76.3888 7.19845 76.6918C5.72811 77.4167 4.263 77.9014 2.5929 77.24C2.02973 77.0168 1.30986 77.1243 0.557332 76.6755C1.30019 76.4592 2.05656 76.2769 2.78202 76.0179C3.85184 75.6363 4.92581 75.2503 5.95283 74.7782C8.4411 73.6327 10.878 72.3861 13.3831 71.2759C15.3794 70.3913 17.4451 69.647 19.7849 68.7203C17.9361 67.7321 16.3952 67.4467 14.6493 67.8641C13.4796 68.1439 12.2494 68.4425 10.9888 67.8157C10.8706 66.2547 12.7138 66.1145 13.415 64.9301C12.4692 64.7434 11.7436 65.0458 11.0255 65.3105C10.2659 65.5908 9.64025 65.4965 9.27582 64.7899C8.87948 64.0223 8.29185 63.0246 9.22361 62.4519C10.2325 61.8314 10.3125 60.9557 10.6892 60.1258C11.2278 58.9383 12.0298 58.1292 13.5127 57.8463C14.7748 57.6055 15.9925 57.0737 17.186 56.5758C19.4403 55.6353 21.58 54.4107 24.124 54.2397C24.4949 54.2145 24.8876 54.0662 25.2162 53.8864C26.6485 53.1043 28.1473 52.6932 29.8217 52.6316C31.7087 52.5624 33.3186 51.6999 34.9993 50.3369H24.571C24.8257 49.1795 25.0038 48.0058 25.3745 46.8849C25.5055 46.4889 26.0643 46.0123 26.5004 45.9281C29.8942 45.2749 33.3028 44.6953 36.715 44.1389C37.0182 44.0892 37.4528 44.2961 37.6971 44.5111C38.587 45.2925 39.5753 45.2944 40.6784 44.975C41.8276 44.6425 42.9978 44.374 44.6554 43.9503C42.2863 42.6861 41.8937 40.614 40.8575 38.9028C42.6715 37.1651 44.9585 37.1387 47.1286 36.759C48.7857 36.4692 50.4704 36.2165 52.0627 35.7142C55.1251 34.7485 58.1247 33.6044 61.1629 32.5671C61.8833 32.3213 62.6463 32.1113 63.4018 32.0472C66.1588 31.8152 68.9199 31.6197 71.682 31.4763C73.2886 31.3927 74.8443 31.4348 76.4398 30.8351C77.4998 30.4365 78.883 30.6075 80.076 30.7747C83.0165 31.1878 85.8504 32.0968 88.8949 32.0786C90.0055 32.0717 91.093 32.6809 92.2211 32.8217C95.3926 33.2178 98.5361 33.8829 101.807 33.3523C103.264 33.1159 104.675 33.4296 105.931 34.3003C106.904 34.9749 107.993 35.276 109.356 35.1358C110.31 35.0377 111.418 35.5891 112.318 36.0719C113.572 36.7439 114.767 36.881 115.994 36.1523C117.823 35.0666 119.906 35.4935 121.855 35.1308C124.345 34.6668 126.858 34.2997 129.372 33.991C130.889 33.8049 132.432 33.8458 133.958 33.7169C135.088 33.622 136.258 33.561 137.325 33.2322C139.224 32.6463 139.469 32.6947 140.054 34.5367C140.118 34.7385 140.204 34.934 140.321 35.2383C140.887 35.3081 141.667 35.6463 142.056 35.4118C143.969 34.2569 146.068 35.0013 148.051 34.6505C150.481 34.2211 152.834 34.6561 154.827 36.0398C156.079 36.9092 157.315 37.2481 158.898 36.8942C160.504 36.5352 161.16 36.8715 163.201 38.5293L161.423 40.135C161.755 40.2525 162.116 40.5002 162.469 40.4864C164.619 40.399 166.772 40.3179 168.911 40.1016C170.425 39.9482 171.872 39.4484 173.459 39.9086C174.005 40.067 174.936 39.5748 175.502 39.1549C178.211 37.1406 183.478 36.9765 185.916 39.0172C187.549 40.3845 189.49 40.0765 191.382 40.0526C193.146 40.0299 194.91 39.8728 196.674 39.7867C197.579 39.7427 198.382 39.6094 199.285 39.2322C201.328 38.3784 203.288 39.1316 205.233 40.1701C207.535 39.3177 210.097 38.6261 211.479 36.0769C211.103 35.8028 210.739 35.5708 210.419 35.2961C209.427 34.4436 209.491 34.2337 210.313 33.1706C212.333 30.5585 215.399 29.7972 218.438 28.9981C219.394 28.7467 220.595 29.4439 220.657 30.3768C220.762 31.9434 221.313 33.7219 218.907 34.7007C220.241 35.4413 221.6 36.026 220.748 37.829C221.284 37.4964 221.791 36.9652 222.365 36.8797C223.121 36.7672 224.071 36.7967 224.679 37.1469C225.375 37.5474 225.086 38.613 224.219 39.3931C223.784 39.7848 223.268 40.0991 222.852 40.4021C222.804 41.3049 223.329 41.5042 224.022 41.4734C224.323 41.4602 224.653 41.3998 224.915 41.2653C228.111 39.6263 231.172 37.8378 233.008 34.7146L229.721 33.0348C228.041 32.1754 227.511 30.583 228.888 29.4458C231.08 27.6358 233.499 26.0428 235.954 24.5497C236.707 24.0914 237.891 24.236 238.881 24.1461C240.178 24.0285 241.479 23.9449 242.78 23.862C243.625 23.8079 244.544 23.6394 244.605 24.5157C246.929 24.3831 249.069 24.1882 251.209 24.1593C253.142 24.1329 253.379 24.5409 252.874 26.4175C252.82 26.6205 252.816 26.8349 252.774 27.1643H256.57C255.374 26.0635 254.344 25.1425 254.965 23.7073C258.197 22.9981 261.636 23.8135 262.93 25.7404L261.115 26.4872C261.142 26.5551 261.152 26.7148 261.232 26.7544C262.306 27.2876 263.42 27.7571 264.463 28.3355C265.779 29.0654 267.071 29.7205 268.655 29.9455C270.494 30.2064 272.162 31.035 273.503 32.2207C274.114 32.7613 274.555 33.6019 274.755 34.382C275.069 35.6092 274.671 36.6496 273.135 37.0318C272.871 37.0972 272.66 37.3588 272.14 37.7353C272.899 38.1848 273.463 38.6079 274.102 38.8782C275.283 39.3774 276.498 39.8131 277.719 40.2267C279.045 40.6756 279.856 41.5495 280.323 42.7527C280.917 44.2816 280.737 44.8732 279.349 45.9111C278.139 46.8158 276.936 47.7273 275.719 48.6232C274.483 49.5335 273.358 49.48 272.279 48.4233C271.806 47.9588 271.382 47.4523 271.014 46.9107C269.651 44.9065 269.062 44.6425 266.6 45.0863C266.239 45.1517 265.895 45.3044 265.239 45.5138C265.825 46.1695 266.267 46.6969 266.748 47.1923C267.358 47.8216 268.075 48.3724 268.613 49.0494C269.758 50.4928 269.671 51.9419 268.472 53.386C267.197 54.9212 265.275 55.5442 263.59 54.9501C262.687 54.632 261.798 54.2818 260.561 53.8185L262.179 57.6929C261.15 58.6277 260.084 58.3631 259.097 58.0519C257.289 57.483 255.506 56.8436 253.737 56.1791C252.495 55.712 251.506 55.001 251.163 53.6676C251.006 53.0572 250.633 52.4913 250.31 51.9299C249.742 50.9448 248.919 50.6833 247.648 50.7638C245.049 50.9285 242.432 50.8568 239.827 50.7877C238.754 50.7594 238.43 50.0364 238.911 49.1054C239.843 47.3011 241.823 46.5662 243.889 46.9943C245.435 47.3149 247.058 47.4212 248.652 47.4362C249.625 47.445 250.46 47.1364 250.929 45.9941C251.235 45.2473 252.335 44.7437 253.134 44.1999C254.195 43.4769 255.391 42.9117 256.379 42.1152C257.783 40.9817 257.622 39.6792 255.985 38.8889C254.931 38.3804 254.228 37.7033 253.553 36.7936C252.844 35.8399 251.67 35.1911 250.789 34.4813C246.682 35.7349 242.819 34.448 238.585 34.6492C239.05 34.9554 239.258 35.1232 239.495 35.2446C241.546 36.3001 241.646 37.4644 239.673 38.7035C238.662 39.339 237.339 39.6081 237.51 41.1534C237.535 41.3854 237.086 41.7374 236.78 41.9279C235.173 42.9377 233.547 43.9217 231.903 44.8795C230.846 45.4912 229.718 45.4553 228.558 45.1322C226.98 44.6921 226.97 44.7204 224.956 45.522C226.346 46.7774 227.719 47.9725 228.196 49.8176C228.348 50.4023 229.221 50.8135 229.744 51.2856C229.144 53.0452 228.784 53.2502 227.22 52.7629C227.002 52.695 226.746 52.6573 226.584 52.5247C224.785 51.0442 223.03 51.8331 221.283 52.6906C220.193 53.2256 219.121 53.7933 218.02 54.3572L215.352 52.3556L219.919 47.5123C219.081 47.5645 218.718 47.4809 218.55 47.6129C216.154 49.4989 213.414 50.7858 210.499 51.7621C209.266 52.1751 208.177 52.8497 207.044 53.3683C205.148 54.2353 203.719 56.2357 201.168 55.8019C200.564 55.6988 199.839 56.1005 199.183 56.3099C195.027 57.6357 191.293 59.6965 187.988 62.3733C186.56 63.5294 185.455 65.0345 183.97 66.6319C184.825 66.8199 185.241 66.8803 185.632 67.0041C186.523 67.2864 186.764 67.827 186.424 68.6833C186.002 69.7464 185.676 70.8408 185.289 71.9781C185.679 72.0516 185.918 72.1724 186.106 72.1214C189.711 71.1508 192.258 72.4622 194.882 74.7361C196.818 76.4127 199.225 77.9579 202.374 77.8398C203.983 77.7794 205.609 78.4301 207.407 78.796C206.221 80.7166 205.193 82.3712 204.177 84.0321C202.743 86.3764 203.097 88.3561 205.285 90.3213C206.418 89.9321 207.607 89.6518 208.659 89.1281C209.827 88.5466 210.73 87.64 211.101 86.3814C211.423 85.2882 211.772 84.2012 212.091 83.1067C212.23 82.6283 212.46 82.1254 212.415 81.657C212.279 80.2457 213.046 79.6245 214.378 79.1424C216.675 78.3106 218.889 77.2721 221.165 76.3832C222.915 75.6998 224.009 74.401 225 73.011C226.237 71.2765 226.153 70.5567 224.71 68.8675C223.833 67.8402 223.921 67.2826 225.138 66.6476C225.745 66.3314 226.395 66.0768 227.048 65.858C228.99 65.2086 229.892 63.8344 229.866 62.0414C229.849 60.8998 230.289 60.1422 231.143 59.4193C231.516 59.1043 231.821 58.6422 231.978 58.1952C232.82 55.8032 235.033 54.7382 237.558 55.5241C238.711 55.883 239.886 56.1911 241.066 56.4721C241.504 56.5758 242.103 56.7179 242.423 56.5312C244.798 55.1481 245.888 57.0787 246.88 58.226C247.571 59.0244 248.196 59.6116 249.164 60.0416C249.82 60.3333 250.342 60.8815 251.033 61.397C250.564 62.2954 250.139 63.0529 249.767 63.8312C248.886 65.6764 249.012 66.5603 250.244 67.4882C251.349 68.3199 253.266 68.413 254.579 67.6208C256.464 66.4823 258.313 65.2897 260.181 64.1248C260.863 63.6992 261.554 63.2862 262.412 62.7631C263.355 65.9159 264.232 68.7757 265.053 71.6499C265.205 72.1793 265.285 72.8023 265.138 73.3222C264.351 76.1034 265.435 78.1623 268.277 79.1185C269.068 79.3844 269.899 79.5937 270.62 79.976C271.009 80.1822 271.532 80.8071 271.432 81.0554C271.025 82.072 271.618 82.5296 272.35 82.9753C273.419 83.6272 273.84 84.3993 273.47 85.6912C273.039 87.1937 273.239 88.849 271.52 89.8944C271.192 90.0937 271.447 90.999 271.172 91.4403C270.492 92.5298 269.661 93.5388 268.77 94.7427C269.095 95.2928 269.355 96.3961 270.031 96.6884C270.683 96.9701 271.759 96.3885 272.658 96.2376C273.107 96.1622 273.594 96.1226 274.032 96.2037C275.049 96.3923 275.541 97.2272 274.896 97.9388C273.7 99.259 274.082 100.944 273.248 102.341L275.071 103.306L273.023 105.881C270.987 105.702 269.259 105.026 267.391 103.938C266.862 103.63 266.108 103.53 265.459 103.544C262.86 103.6 260.26 103.763 257.661 103.824C257.189 103.835 256.714 103.553 255.901 103.301C258.157 101.164 260.242 99.2892 262.2 97.3064C264.169 95.3123 266.013 93.2112 267.961 91.104C266.254 90.6098 264.731 90.9915 263.29 91.9979C261.362 93.3439 259.371 94.605 256.933 94.974C256.041 95.1092 255.099 95.3135 254.237 95.1828C251.814 94.8103 249.336 94.7931 246.893 95.1318C244.848 95.4103 242.736 95.245 240.656 95.2155C239.613 95.2004 238.799 95.4895 237.894 96.0428C236.621 96.821 235.084 97.2089 233.708 97.8533C232.594 98.3745 231.381 98.8617 230.79 100.462C231.555 100.086 232.032 99.9091 232.443 99.6419C234.808 98.1042 237.53 97.5107 240.276 97.1951C241.407 97.065 242.711 97.4598 243.769 97.9319C245.008 98.4845 244.991 99.4746 243.861 100.29C242.779 101.07 241.863 101.742 241.415 103.164C240.513 106.021 241.758 108.239 244.985 108.644C246.436 108.826 247.833 109.101 248.962 110.401C248.478 110.625 248.122 110.823 247.743 110.958C246.3 111.471 244.835 111.928 243.407 112.474C242.194 112.938 241.084 113.432 239.649 113.211C238.939 113.102 237.983 113.776 237.273 114.266C236.535 114.775 235.998 115.532 235.302 116.104C234.288 116.936 233.239 116.995 232.665 116.278C231.971 115.409 232.362 114.613 233.132 114.002C234.817 112.663 236.558 111.384 238.277 110.081C238.044 110.105 237.653 110.084 237.308 110.193C234.395 111.117 231.345 111.71 228.746 113.406C228.394 113.636 227.874 113.746 227.438 113.738C226.367 113.72 225.538 113.982 224.81 114.816C224.421 115.262 223.669 115.543 223.032 115.675C220.929 116.11 219.488 117.423 218.187 118.856C217.739 119.349 217.75 120.186 217.489 120.845C217.265 121.416 217.105 122.244 216.651 122.457C215.216 123.133 213.677 123.928 212.142 124.028C209.52 124.198 207.567 125.688 205.286 126.5C205.084 126.573 204.828 126.734 204.766 126.904C203.974 129.087 201.898 130.145 200.178 131.521C199.843 131.79 199.668 132.227 199.389 132.564C198.594 133.529 197.783 134.484 196.929 135.5L195.53 134.694C195.319 136.361 195.28 137.93 194.889 139.424C194.443 141.129 194.096 142.968 192.149 143.97C191.799 144.149 191.423 144.602 191.389 144.951C191.274 146.144 190.541 146.486 189.4 146.643C187.86 146.855 186.377 147.265 185.431 148.621C185.234 148.903 184.861 149.164 184.515 149.262C181.233 150.186 178.987 152.672 176.081 154.173C173.873 155.313 173.26 157.737 171.753 159.464C171.545 159.702 171.548 160.163 171.583 160.508C171.816 162.776 172.064 165.043 172.345 167.306C172.547 168.931 173.016 170.548 172.995 172.172C172.957 175.097 171.112 177.215 168.372 177.879C166.723 175.484 165.178 173.035 164.736 170.139C164.586 169.156 164.299 168.015 164.673 167.168C165.497 165.304 164.551 164.167 163.368 163.002C163.163 162.8 162.905 162.645 162.689 162.482L158.977 163.317C158.721 162.938 158.47 162.6 158.253 162.243C157.428 160.889 156.288 160.23 154.657 160.606C152.976 160.993 151.201 160.605 149.55 161.516C148.82 161.919 147.631 161.584 146.472 161.584L146.413 164.711C144.141 164.386 142.087 163.951 140.007 163.839C138.149 163.738 136.463 163.136 134.691 162.842C133.748 162.686 132.587 163.168 131.628 163.578C129.947 164.297 128.411 165.351 126.694 165.952C124.762 166.629 123.282 167.89 121.591 168.869C119.987 169.798 119.396 171.3 119.408 172.945C119.419 174.443 118.951 175.747 118.175 177.038C116.526 179.779 115.7 182.782 115.192 185.834C115.009 186.935 115.572 188.127 115.41 189.235C115.036 191.804 116.095 193.999 117.006 196.257C117.516 197.517 118.327 198.49 119.754 198.928C120.115 199.039 120.617 199.109 120.782 199.358C121.797 200.888 123.078 200.468 124.592 200.051C125.89 199.693 127.327 199.727 128.702 199.715C132.952 199.677 132.967 199.706 134.698 196.023C135.036 195.304 135.326 194.534 135.439 193.766C135.685 192.095 136.521 191.093 138.355 190.62C140.871 189.971 143.343 189.163 145.974 189.687C146.593 189.811 147.525 190.099 147.641 190.492C147.808 191.059 147.572 191.981 147.128 192.415C146.248 193.277 146.182 194.269 145.842 195.291C145.096 197.533 144.069 199.724 142.895 201.811C142.253 202.953 141.499 203.964 141.225 205.293C140.989 206.443 140.253 207.501 139.657 208.771ZM181.406 108.717C182.369 109.116 183.385 109.433 184.282 109.933C185.591 110.663 185.664 111.465 184.623 112.536C183.988 113.189 183.123 113.673 182.781 114.608C185.207 114.959 185.207 114.959 185.028 117.675L190.735 111.39L193.074 112.613C193.827 110.236 193.629 109.679 191.583 108.983C190.232 108.522 188.82 108.179 187.405 107.913C185.264 107.512 184.207 106.415 184.265 104.381C184.285 103.68 184.418 102.981 184.472 102.517L181.325 99.9122C180.382 100.028 179.036 100.012 177.815 100.377C173.712 101.603 169.936 103.54 166.083 105.302L166.199 105.742L174.295 104.589C176.096 105.819 176.633 105.969 179.296 105.668C181.913 105.371 184.131 105.769 185.505 108.454C184.739 108.454 184.17 108.415 183.608 108.465C182.886 108.528 182.169 108.663 181.447 108.763C181.31 108.707 181.157 108.579 181.039 108.604C177.838 109.279 174.834 110.07 172.532 112.698C170.575 114.932 169.227 117.358 168.143 119.963C167.896 120.558 168.083 121.303 168.063 122.364C170.585 121.174 172.335 119.75 172.936 117.617C173.803 114.543 175.834 112.503 178.593 110.859C179.606 110.254 180.473 109.436 181.406 108.717ZM184.818 122.293C187.424 122.01 189.68 120.901 191.926 119.767C188.972 119.226 186.945 120.878 184.818 122.293ZM78.0128 94.7616C78.4949 97.1606 79.2423 98.3097 80.8467 99.1609C79.9399 97.8445 80.0041 96.022 78.0128 94.7616ZM190.381 228.098C189.456 229.62 189.456 229.62 190.881 230.67C191.631 229.698 191.053 228.965 190.381 228.098ZM182.547 122.764L182.56 122.598L181.077 122.499L181.059 122.764H182.547ZM843.937 390.321C842.977 390.789 842.048 391.146 841.231 391.66C840.032 392.414 838.821 392.568 837.496 392.136C836.054 391.667 834.615 391.185 833.156 390.759C830.935 390.111 830.365 389.362 830.624 387.135C830.715 386.355 831.009 385.593 831.126 384.813C831.288 383.738 831.458 382.702 829.937 382.182C829.491 382.029 829.364 381.098 829.028 380.391L825.801 380.751C826.436 377.988 829.569 377.206 830.186 374.653C828.111 376.04 826.023 377.409 823.968 378.822C823.064 379.444 822.451 379.46 821.923 378.58C821.601 378.044 821.359 377.37 821.385 376.764C821.446 375.383 821.059 374.165 820.637 372.86C820.239 371.624 819.529 371.137 818.455 370.686C817.221 370.167 816.056 369.51 814.819 368.999C814.208 368.746 813.476 368.487 812.844 368.57C810.415 368.887 807.996 369.305 805.587 369.755C803.403 370.162 801.233 370.648 799.063 371.123C797.802 371.398 796.528 371.648 795.303 372.037C793.342 372.66 791.418 373.388 789.17 374.181C788.209 375.893 786.362 376.641 783.976 376.47C782.445 376.36 780.903 376.353 779.366 376.305C777.079 376.234 774.959 376.543 773.095 378.052C771.999 378.939 770.661 379.595 769.362 380.228C766.853 381.453 764.437 380.794 762.802 378.625C762.386 378.073 761.733 377.679 761.171 377.198C761.1 376.017 761.75 375.215 762.753 374.519C764.741 373.14 765.171 370.888 766.204 368.981C766.371 368.672 766.083 368.16 766.02 367.74C765.613 365.042 765.346 362.345 765.948 359.617C766.052 359.146 765.96 358.612 765.835 358.136C765.35 356.278 764.767 354.443 764.319 352.578C764.071 351.544 764.018 350.467 763.891 349.511C764.798 348.443 765.644 348.17 766.733 349.202C766.58 348.459 766.498 347.694 766.262 346.974C765.621 345.025 766.157 343.274 767.393 341.685C768.297 340.524 768.794 339.32 768.755 337.885C768.734 337.131 768.721 336.165 770.114 336.537C770.241 336.571 770.43 336.572 770.53 336.507C772.164 335.432 773.956 334.502 775.365 333.212C776.655 332.031 778.053 331.551 779.704 331.522C780.911 331.501 782.001 331.386 782.788 330.379C782.957 330.162 783.275 329.94 783.543 329.913C784.92 329.771 786.289 329.691 787.376 328.687C787.539 328.535 787.979 328.586 788.276 328.626C791.157 329.016 793.288 327.932 794.981 325.765C795.697 324.849 796.702 324.133 797.478 323.251C797.833 322.846 798.177 322.242 798.136 321.763C797.957 319.678 799.239 318.441 801.008 317.145L803.32 319.805C803.775 317.949 802.541 315.323 805.975 315.801C806.133 314.955 806.015 313.958 806.495 313.455C807.041 312.881 808.121 312.748 809.139 312.36C809.105 310.386 811.138 310.045 812.527 309.17C813.196 308.748 814.08 308.562 814.895 308.429C815.442 308.34 816.206 308.344 816.579 308.633C817.64 309.458 818.552 310.45 819.841 311.679L822.712 312.108C821.633 309.544 823.642 308.362 825.09 306.922C825.385 306.629 825.56 306.235 825.816 305.906C826.361 305.21 826.824 304.423 827.501 303.861C828.425 303.094 829.465 302.521 830.86 302.992C831.511 303.212 832.327 303.03 832.969 303.03C833.894 301.733 832.826 300.914 832.208 299.561C833.517 299.848 834.564 299.847 835.308 300.285C837.519 301.585 840.041 301.884 842.512 302.206C843.539 302.34 844.603 302.705 845.828 302.326C846.97 301.972 847.89 303.611 847.29 304.778C847.06 305.226 846.665 305.605 846.331 306.005C845.575 306.908 844.715 307.751 844.075 308.719C843.483 309.614 843.123 310.64 842.59 311.755C844.775 313.537 847.005 315.31 849.173 317.146C850.281 318.083 851.529 318.896 852.687 319.73C854.5 321.036 856.529 321.266 857.313 318.559C858.234 315.375 859.922 312.457 860.697 309.195C861.419 306.156 863.013 303.282 864.244 300.343C864.574 299.552 864.978 298.787 865.433 297.832C866.989 298.799 866.869 300.329 867.273 301.585C867.685 302.867 868.034 304.184 868.225 305.511C868.424 306.9 868.402 308.32 868.477 309.741C870.845 309.746 872.724 311.574 872.673 313.925C872.664 314.354 872.596 314.823 872.749 315.204C873.823 317.893 873.533 320.711 873.445 323.487C873.397 324.999 873.964 325.807 875.356 326.517C876.601 327.151 877.641 328.162 878.662 329.11C879.052 329.472 879.172 330.107 879.351 330.638C879.463 330.971 879.321 331.447 879.527 331.673C880.755 333.025 880.715 334.685 880.761 336.421C882.977 336.886 884.013 338.151 883.843 340.262C883.811 340.654 883.955 341.215 884.247 341.439C885.941 342.736 886.316 344.723 887.3 346.385C887.406 346.563 887.553 346.72 887.734 346.958L889.379 346.2C889.064 346.888 888.881 347.255 888.728 347.632C888.408 348.426 888.065 349.216 887.803 350.027C887.561 350.777 887.479 351.574 887.206 352.313C886.927 353.069 886.671 353.725 886.984 354.578C887.202 355.172 887.087 356.028 886.78 356.618C885.363 359.341 883.823 362.011 882.334 364.704C882.091 365.145 881.893 365.606 881.661 366.053C881.359 366.635 881.172 367.324 880.714 367.769C879.222 369.218 877.671 370.613 876.064 371.951C874.328 373.393 872.427 374.67 870.744 376.161C869.702 377.085 868.919 378.266 868.043 379.348C867.764 379.691 867.657 380.247 867.308 380.433C864.236 382.07 863.238 385.263 861.068 387.575C860.283 388.412 859.497 388.898 858.433 389.128C857.983 389.225 857.518 389.262 857.058 389.299C854.863 389.475 853.011 390.319 851.13 391.441C846.68 394.091 847.199 393.514 843.937 390.321ZM374.855 33.1675L376.72 34.6002C372.688 35.9788 369.275 37.8787 365.468 38.5985C361.748 39.302 358.039 40.5725 353.895 39.9589C351.955 41.2389 349.945 42.9224 347.619 44.0012C345.088 45.1762 342.285 45.857 339.555 46.6026C338.865 46.7906 338.005 46.4034 336.884 46.2273C335.946 47.2275 334.381 47.6582 332.609 47.5677C331.356 47.5035 330.355 48.0681 329.581 48.9325C328.836 49.7636 328.074 50.6154 327.531 51.5616C326.34 53.6343 324.708 55.172 322.146 55.8377C321.712 59.3432 318.51 60.8501 316.181 62.9662C315.18 63.8752 313.14 63.5433 312.133 62.2382C310.648 60.3145 308.787 59.9486 306.509 60.5923C305.702 60.8205 305.023 60.6093 304.716 60.0177C303.203 57.1057 301.144 54.3598 301.397 50.8663C301.428 50.4388 301.56 50.0132 301.562 49.5876C301.565 48.9055 301.644 48.1793 301.432 47.5519C300.787 45.6452 300.815 43.7454 301.659 41.9266C302.668 39.7502 304.425 38.3376 307.024 37.8912C308.103 37.7064 309.406 37.7913 309.974 36.6194C309.968 35.0145 307.68 34.3984 308.214 32.3508L312.463 32.562C312.715 30.7672 311.196 30.627 310.171 30.3567C309.043 30.0593 307.782 30.1725 306.695 30.1128C306.123 28.9013 306.772 28.1136 307.208 27.28C308.64 24.5453 308.258 22.1582 306.191 19.9516C305.369 19.0746 304.335 18.7327 303.199 18.5497C299.489 17.9506 295.779 17.5093 291.973 18.1392C290.204 18.4322 288.444 18.1021 286.851 17.2848C286.096 16.8976 285.451 16.516 285.709 15.4617C285.819 15.0085 285.357 14.4445 285.164 13.9284C284.979 13.4355 284.803 12.9389 284.504 12.1135C287.659 11.7815 290.477 11.5489 293.275 11.1717C296.009 10.8027 298.721 10.2853 301.558 9.81441L301.423 8.19873C301.999 8.00008 302.547 7.73416 303.126 7.6254C306.891 6.91941 310.753 6.53278 314.405 5.47914C317.657 4.54054 320.863 4.2388 324.175 4.25515C324.625 4.25766 325.08 4.09483 325.533 4.00996C328.32 3.48754 331.087 3.32346 333.956 3.33855C339.699 3.36936 345.487 3.22725 351.183 2.10509C355.682 1.21867 360.187 1.30043 364.727 1.62733C366.444 1.75118 368.229 1.29539 369.974 1.04329C377.254 -0.00846333 384.385 0.461762 391.359 2.5043C392.471 2.82994 392.455 2.87583 392.724 3.78802C395.87 3.95902 398.925 4.16208 401.986 4.27902C404.115 4.36074 406.252 4.30855 408.384 4.35633C408.804 4.36576 409.215 4.56128 410.001 4.76874C409.398 5.27544 409.096 5.7149 408.686 5.84189C407.008 6.36306 405.323 6.94581 403.592 7.21111C401.352 7.55499 399.27 8.23523 397.23 9.1273C396.466 9.46113 395.626 9.64656 394.873 9.99736C393.998 10.4035 393.162 10.892 392.342 11.3918C391.646 11.8167 390.996 12.3083 390.281 12.8012C391.035 13.5286 392.646 13.6857 392.148 15.1656C391.738 16.3871 390.481 16.2702 389.466 16.5078C389.179 16.5751 388.894 16.6531 388.655 16.714C388.595 16.9391 388.48 17.1246 388.536 17.1968C389.836 18.9162 389.617 20.1666 387.825 21.7767C385.46 23.9003 383.171 25.5405 379.728 25.4845C378.163 25.4594 376.576 25.9831 374.38 26.3653C375.25 27.0172 375.631 27.3793 376.086 27.6283C376.807 28.0224 377.619 28.2808 378.314 28.7058C379.525 29.4451 379.898 30.5623 379.686 31.8869C379.541 32.7903 379.084 33.3479 378.022 33.3133C376.946 33.2787 375.869 33.2529 374.791 33.224C374.222 32.4677 373.981 31.3959 372.604 31.2865L371.872 32.7557C372.974 32.9103 373.914 33.0392 374.855 33.1675ZM878.943 280.347C881.317 281.456 884.004 281.704 885.195 284.429L882.353 285.947C882.536 286.315 882.665 286.626 882.838 286.915C883.793 288.511 885.444 289.677 886.016 291.526C886.115 291.846 886.769 292.317 886.998 292.243C888.59 291.729 888.537 292.685 889.027 293.66C889.527 294.654 890.813 295.316 891.809 296.061C892.37 296.479 892.998 296.857 892.688 297.612C892.337 298.468 891.459 298.333 890.702 298.331C890.477 298.33 890.183 298.31 890.041 298.183C888.459 296.762 886.527 296.894 884.493 296.887C882.743 296.882 881.477 295.644 880.505 294.311C880.119 293.783 879.609 293.246 879.494 292.65C878.984 290.027 876.589 289.465 874.505 288.563C873.467 288.114 872.522 288.425 871.82 289.218C871.187 289.932 870.566 290.689 870.131 291.514C869.395 292.908 868.198 293.424 866.649 293.693C863.783 294.19 861.803 292.912 860.009 291.164C859.54 290.707 859.136 290.192 858.751 289.757C856.353 289.3 854.561 292.162 852.043 290.642C851.938 288.698 853.038 287.329 854.915 286.081C854.345 284.542 853.818 282.916 853.126 281.355C852.884 280.809 852.328 280.258 851.759 279.999C850.117 279.251 848.442 278.507 846.691 278.032C844.963 277.563 843.412 276.932 842.05 275.839C841.515 275.41 840.794 275.18 840.432 274.997C839.524 275.753 838.936 276.641 838.236 276.738C836.938 276.917 836.921 275.603 836.508 274.814C836.013 273.869 835.545 272.911 835.056 271.941L839.279 270.409L839.179 269.976C838.603 269.976 838.026 269.983 837.451 269.974C836.463 269.958 835.638 269.679 835.221 268.763C834.778 267.79 833.929 267.439 832.843 267.377C831.622 267.308 830.913 266.707 830.752 265.662C832.504 265.032 834.121 264.473 835.719 263.869C837.566 263.17 839.187 263.5 840.649 264.65C841.285 265.151 841.904 265.67 842.597 266.235C842.419 268.835 843.454 271.01 845.611 273.006C846.159 272.373 846.604 271.897 846.998 271.389C847.316 270.981 847.465 270.379 847.874 270.126C849.616 269.048 851.392 268.005 853.24 267.1C853.652 266.898 854.426 267.25 854.99 267.448C857.135 268.203 859.245 269.041 861.4 269.769C864.688 270.879 868.072 271.775 871.279 273.053C873.039 273.756 874.529 275.038 876.116 276.091C876.544 276.375 876.858 276.805 877.266 277.12C878.412 278.009 879.501 278.912 878.943 280.347ZM794.294 259.403L790.932 260.143C790.249 260.705 789.917 261.629 789.995 262.675C790.1 264.092 789.673 265.141 788.159 265.827C786.57 266.547 785.682 267.726 786.199 269.5C786.309 269.879 786.323 270.47 786.086 270.722C784.947 271.934 784.936 273.304 785.277 274.691L780.138 276.449L778.797 274.271C777.767 273.934 776.09 274.764 775.743 273.084L771.32 274.761L769.909 273.062C769.297 273.117 768.688 273.245 768.09 273.212C766.666 273.134 766.183 272.676 765.807 271.303C765.485 270.132 765.141 268.967 764.774 267.808C764.671 267.48 764.558 267.018 764.296 266.894C762.674 266.13 762.829 264.711 762.738 263.37C762.691 262.66 762.856 261.857 762.557 261.26C761.691 259.527 762.155 258.077 763.367 256.677C763.607 256.401 763.799 256.09 764.113 255.658L768.454 256.213C768.664 255.999 768.834 255.905 768.856 255.79C769.361 253.183 771.122 251.942 773.853 251.658C775.109 251.527 775.854 250.776 776.394 249.699C777.355 247.783 778.69 246.152 780.883 245.273C782.504 244.624 783.612 243.494 784.478 242.041C785.252 240.744 786.305 239.587 787.233 238.371C787.625 238.545 787.912 238.583 788.01 238.731C789.468 240.948 791.541 242.405 794.114 243.423C795.594 244.009 795.496 244.94 794.085 245.78C793.765 245.971 793.401 246.095 792.997 246.277C793.359 247.384 793.169 248.126 791.76 248.298C790.634 248.435 790.264 249.078 790.541 250.155C790.834 251.294 790.911 252.463 791.222 253.625C791.779 255.697 792.841 257.438 794.294 259.403Z" fill="#E5E5E5"/>
</svg>
